<?xml version="1.0" encoding="UTF-8"?>
<svg version="1.1" xmlns="http://www.w3.org/2000/svg" width="600" height="600">
<path d="M0 0 C2.10073853 -0.36076355 2.10073853 -0.36076355 4.72509766 -0.34057617 C5.70596344 -0.34034958 6.68682922 -0.34012299 7.69741821 -0.33988953 C8.75891083 -0.32440567 9.82040344 -0.30892181 10.9140625 -0.29296875 C11.99883881 -0.28872391 13.08361511 -0.28447906 14.20126343 -0.28010559 C17.67609167 -0.263273 21.15034618 -0.22561189 24.625 -0.1875 C26.97655414 -0.17245911 29.32811735 -0.15876967 31.6796875 -0.14648438 C37.45332173 -0.11335454 43.22661989 -0.06310982 49 0 C50.96129054 3.41544006 51.65807541 6.68188109 52.37942505 10.53936768 C52.50364047 11.19459278 52.62785589 11.84981788 52.75583541 12.52489829 C53.16998369 14.71770483 53.57545897 16.912024 53.98095703 19.10644531 C54.27631535 20.68033571 54.57218589 22.25413005 54.86853027 23.82783508 C55.67164053 28.101735 56.46702957 32.3770381 57.26066065 36.6527071 C57.92429428 40.22404508 58.59172284 43.79466936 59.25916564 47.36529708 C60.83432114 55.79216256 62.40328691 64.22016413 63.96826172 72.64892578 C65.58144007 81.3367901 67.20422729 90.02281927 68.8319217 98.70797467 C70.22999769 106.16956124 71.62245334 113.63218129 73.01035202 121.0956676 C73.83889094 125.55099018 74.66944712 130.00591139 75.50525284 134.45987701 C76.29150344 138.65129132 77.07068858 142.84395966 77.84454346 147.03767967 C78.12907114 148.57316949 78.41603127 150.10821096 78.70565414 151.64274788 C81.57527373 166.86299341 81.57527373 166.86299341 81 173 C79 175 79 175 76.01904297 175.22705078 C74.77268066 175.21657715 73.52631836 175.20610352 72.2421875 175.1953125 C71.57913605 175.1924826 70.91608459 175.18965271 70.23294067 175.18673706 C68.11344417 175.17553435 65.99436896 175.15043051 63.875 175.125 C62.43880818 175.11497028 61.00260975 175.10584441 59.56640625 175.09765625 C56.04413372 175.075595 52.52210797 175.04106494 49 175 C46.65205057 168.57408152 45.12940764 162.22868083 43.95703125 155.49609375 C43.78370773 154.5322023 43.61038422 153.56831085 43.43180847 152.57521057 C42.88576849 149.53038755 42.34898637 146.48401925 41.8125 143.4375 C41.44136877 141.35861433 41.06962977 139.27983706 40.69726562 137.20117188 C39.7900121 132.13550466 38.89532663 127.06784643 38 122 C29.09 122 20.18 122 11 122 C10.28972656 125.65835938 9.57945312 129.31671875 8.84765625 133.0859375 C8.15996378 136.61732497 7.47126671 140.14851513 6.7824707 143.6796875 C6.3032278 146.13944355 5.82503436 148.59940431 5.34790039 151.05957031 C4.66306023 154.58973288 3.97448539 158.11914911 3.28515625 161.6484375 C3.07157974 162.75367767 2.85800323 163.85891785 2.63795471 164.99765015 C2.33775673 166.52901108 2.33775673 166.52901108 2.03149414 168.09130859 C1.76835167 169.44366104 1.76835167 169.44366104 1.49989319 170.82333374 C1 173 1 173 0 175 C-4.37821909 175.0740719 -8.75610782 175.12856375 -13.13476562 175.16479492 C-14.62473909 175.179896 -16.11466801 175.20037858 -17.60449219 175.22631836 C-19.7442523 175.26264584 -21.88342566 175.27971221 -24.0234375 175.29296875 C-25.31169434 175.3086792 -26.59995117 175.32438965 -27.92724609 175.34057617 C-28.94125488 175.22818604 -29.95526367 175.1157959 -31 175 C-33.49984102 171.25023848 -33.01435111 170.15591556 -32.30358887 165.79814148 C-32.10152328 164.53920767 -31.8994577 163.28027386 -31.69126892 161.98319054 C-31.46283646 160.65511645 -31.23242038 159.32738199 -31 158 C-30.78553726 156.76336924 -30.57107452 155.52673847 -30.35011292 154.25263405 C-29.63431639 150.24104839 -28.89206531 146.23512373 -28.14257812 142.22973633 C-27.85958674 140.70550751 -27.57683322 139.18123451 -27.29429626 137.65692139 C-26.53481201 133.56415999 -25.77153801 129.47211486 -25.00713158 125.38027024 C-24.52907858 122.82040379 -24.05182802 120.26038901 -23.57484436 117.7003231 C-21.90931023 108.76146123 -20.24052633 99.82321278 -18.56884766 90.88549805 C-17.01200397 82.56124032 -15.46264305 74.23561266 -13.91661692 65.90933973 C-12.58560342 58.74296621 -11.24926801 51.57759839 -9.90879202 44.41298884 C-9.10958374 40.14080926 -8.31258176 35.86824651 -7.52101135 31.59464455 C-6.77854229 27.58708198 -6.02948215 23.58080815 -5.27527046 19.57543945 C-4.99953882 18.10487742 -4.72619112 16.63386613 -4.45538139 15.16238976 C-4.08600283 13.15738593 -3.70725527 11.15411483 -3.32800293 9.1509552 C-3.11858818 8.02888074 -2.90917343 6.90680628 -2.69341278 5.75072956 C-2 3 -2 3 0 0 Z M24 48 C22.99704269 53.03422075 22.00031689 58.0696207 21.00927734 63.10620117 C20.67145893 64.81845148 20.33195755 66.53037065 19.99072266 68.24194336 C19.49976994 70.70601069 19.01493579 73.17121601 18.53125 75.63671875 C18.37813354 76.39836838 18.22501709 77.16001801 18.06726074 77.94474792 C17.32440008 81.76317239 17 85.07486853 17 89 C21.95 89 26.9 89 32 89 C30.21853818 75.23415864 27.58169465 61.63429827 25 48 C24.67 48 24.34 48 24 48 Z " fill="#000000" transform="translate(248,210)"/>
<path d="M0 0 C1.0374939 0.00303635 1.0374939 0.00303635 2.09594727 0.00613403 C2.80243408 0.00517731 3.5089209 0.00422058 4.23681641 0.00323486 C5.7331552 0.00255321 7.22949694 0.00440649 8.72583008 0.00857544 C11.02374884 0.01392396 13.32147213 0.00863003 15.61938477 0.00222778 C17.06990603 0.00288857 18.52042718 0.00416974 19.97094727 0.00613403 C20.66260986 0.0041098 21.35427246 0.00208557 22.06689453 0 C26.91849503 0.0239943 26.91849503 0.0239943 28.03344727 1.13894653 C28.13267694 3.36422888 28.15977147 5.59272737 28.16043091 7.82022095 C28.1619909 8.52682436 28.16355089 9.23342778 28.16515815 9.96144342 C28.16917051 12.34680375 28.16597761 14.73210127 28.1628418 17.11746216 C28.16419573 18.82039935 28.16597562 20.52333625 28.16815186 22.22627258 C28.1727271 26.8645696 28.17093626 31.50284447 28.16777277 36.14114189 C28.16524963 40.98403866 28.16758658 45.82693348 28.16915894 50.66983032 C28.17098077 58.80423322 28.16857396 66.93862705 28.16381836 75.07302856 C28.15837571 84.49166226 28.16013836 93.91027432 28.16564476 103.32890749 C28.17017551 111.40021593 28.17082663 119.47151783 28.1682061 127.54282713 C28.16664311 132.37018406 28.16645015 137.1975308 28.16974258 142.02488708 C28.17262074 146.56216259 28.17064664 151.09941005 28.16484833 155.63668251 C28.16352043 157.30687221 28.16391535 158.97706425 28.16611099 160.64725304 C28.16882134 162.91742513 28.16544283 165.18750593 28.16043091 167.45767212 C28.16005388 168.731213 28.15967686 170.00475388 28.15928841 171.3168869 C28.03344727 174.13894653 28.03344727 174.13894653 27.03344727 175.13894653 C24.66946258 175.23972773 22.33533415 175.27867869 19.97094727 175.27175903 C19.26446045 175.27271576 18.55797363 175.27367249 17.83007812 175.2746582 C16.33373933 175.27533986 14.8373976 175.27348658 13.34106445 175.26931763 C11.04314569 175.26396911 8.7454224 175.26926304 6.44750977 175.27566528 C4.9969885 175.2750045 3.54646735 175.27372333 2.09594727 175.27175903 C1.05845337 175.27479538 1.05845337 175.27479538 0 175.27789307 C-4.8516005 175.25389877 -4.8516005 175.25389877 -5.96655273 174.13894653 C-6.06578241 171.91366418 -6.09287694 169.6851657 -6.09353638 167.45767212 C-6.09509637 166.7510687 -6.09665636 166.04446528 -6.09826362 165.31644964 C-6.10227598 162.93108931 -6.09908308 160.54579179 -6.09594727 158.16043091 C-6.0973012 156.45749372 -6.09908109 154.75455682 -6.10125732 153.05162048 C-6.10583257 148.41332347 -6.10404173 143.7750486 -6.10087824 139.13675117 C-6.0983551 134.2938544 -6.10069204 129.45095959 -6.1022644 124.60806274 C-6.10408624 116.47365985 -6.10167943 108.33926602 -6.09692383 100.2048645 C-6.09148118 90.7862308 -6.09324383 81.36761875 -6.09875023 71.94898558 C-6.10328098 63.87767714 -6.1039321 55.80637524 -6.10131156 47.73506594 C-6.09974857 42.90770901 -6.09955562 38.08036227 -6.10284805 33.25300598 C-6.1057262 28.71573048 -6.10375211 24.17848301 -6.0979538 19.64121056 C-6.0966259 17.97102086 -6.09702082 16.30082882 -6.09921646 14.63064003 C-6.1019268 12.36046793 -6.09854829 10.09038714 -6.09353638 7.82022095 C-6.09315935 6.54668007 -6.09278233 5.27313919 -6.09239388 3.96100616 C-5.88288923 -0.73725552 -4.25422085 0.02103987 0 0 Z " fill="#000000" transform="translate(345.966552734375,209.86105346679688)"/>
<path d="M0 0 C0.68429077 -0.00095673 1.36858154 -0.00191345 2.0736084 -0.00289917 C3.52286877 -0.0035808 4.97213218 -0.00172773 6.42138672 0.00244141 C8.64687928 0.00778998 10.87217001 0.0024959 13.09765625 -0.00390625 C14.50260461 -0.00324547 15.90755285 -0.0019643 17.3125 0 C18.59962891 0.00112793 19.88675781 0.00225586 21.21289062 0.00341797 C24.15625 0.1328125 24.15625 0.1328125 25.15625 1.1328125 C25.25413264 2.62332518 25.28256782 4.11845955 25.28323364 5.61218262 C25.28605347 6.57973984 25.28887329 7.54729706 25.29177856 8.54417419 C25.28975433 9.6143428 25.2877301 10.68451141 25.28564453 11.78710938 C25.28739685 12.90730972 25.28914917 14.02751007 25.29095459 15.18165588 C25.29537577 18.90497359 25.29243417 22.62824426 25.2890625 26.3515625 C25.28973546 28.92606617 25.29070542 31.50056979 25.29196167 34.07507324 C25.293439 39.47892925 25.29137754 44.8827674 25.28662109 50.28662109 C25.2811785 56.54242722 25.28294117 62.79820076 25.2884475 69.0540061 C25.29352434 75.061323 25.29299708 81.0686239 25.29006577 87.07594299 C25.28939623 89.63733423 25.29022584 92.1987263 25.29254532 94.76011658 C25.29507027 98.33293903 25.29123346 101.90569793 25.28564453 105.47851562 C25.28766876 106.54868423 25.28969299 107.61885284 25.29177856 108.72145081 C25.28895874 109.68900803 25.28613892 110.65656525 25.28323364 111.65344238 C25.28285662 112.49927132 25.28247959 113.34510025 25.28209114 114.21656036 C25.15625 116.1328125 25.15625 116.1328125 24.15625 117.1328125 C21.87677208 117.2330218 19.59417865 117.26362553 17.3125 117.265625 C16.62820923 117.26658173 15.94391846 117.26753845 15.2388916 117.26852417 C13.78963123 117.2692058 12.34036782 117.26735273 10.89111328 117.26318359 C8.66562072 117.25783502 6.44032999 117.2631291 4.21484375 117.26953125 C2.80989539 117.26887047 1.40494715 117.2675893 0 117.265625 C-1.28712891 117.26449707 -2.57425781 117.26336914 -3.90039062 117.26220703 C-6.84375 117.1328125 -6.84375 117.1328125 -7.84375 116.1328125 C-7.94163264 114.64229982 -7.97006782 113.14716545 -7.97073364 111.65344238 C-7.97355347 110.68588516 -7.97637329 109.71832794 -7.97927856 108.72145081 C-7.97725433 107.6512822 -7.9752301 106.58111359 -7.97314453 105.47851562 C-7.97489685 104.35831528 -7.97664917 103.23811493 -7.97845459 102.08396912 C-7.98287577 98.36065141 -7.97993417 94.63738074 -7.9765625 90.9140625 C-7.97723546 88.33955883 -7.97820542 85.76505521 -7.97946167 83.19055176 C-7.980939 77.78669575 -7.97887754 72.3828576 -7.97412109 66.97900391 C-7.9686785 60.72319778 -7.97044117 54.46742424 -7.9759475 48.2116189 C-7.98102434 42.204302 -7.98049708 36.1970011 -7.97756577 30.18968201 C-7.97689623 27.62829077 -7.97772584 25.0668987 -7.98004532 22.50550842 C-7.98257027 18.93268597 -7.97873346 15.35992707 -7.97314453 11.78710938 C-7.97516876 10.71694077 -7.97719299 9.64677216 -7.97927856 8.54417419 C-7.97645874 7.57661697 -7.97363892 6.60905975 -7.97073364 5.61218262 C-7.97035662 4.76635368 -7.96997959 3.92052475 -7.96959114 3.04906464 C-7.67795249 -1.39187713 -3.5785873 0.00313597 0 0 Z " fill="#000000" transform="translate(120.84375,243.8671875)"/>
<path d="M0 0 C0.68429077 -0.00095673 1.36858154 -0.00191345 2.0736084 -0.00289917 C3.52286877 -0.0035808 4.97213218 -0.00172773 6.42138672 0.00244141 C8.64687928 0.00778998 10.87217001 0.0024959 13.09765625 -0.00390625 C14.50260461 -0.00324547 15.90755285 -0.0019643 17.3125 0 C18.59962891 0.00112793 19.88675781 0.00225586 21.21289062 0.00341797 C24.15625 0.1328125 24.15625 0.1328125 25.15625 1.1328125 C25.25413264 2.62332518 25.28256782 4.11845955 25.28323364 5.61218262 C25.28605347 6.57973984 25.28887329 7.54729706 25.29177856 8.54417419 C25.28975433 9.6143428 25.2877301 10.68451141 25.28564453 11.78710938 C25.28739685 12.90730972 25.28914917 14.02751007 25.29095459 15.18165588 C25.29537577 18.90497359 25.29243417 22.62824426 25.2890625 26.3515625 C25.28973546 28.92606617 25.29070542 31.50056979 25.29196167 34.07507324 C25.293439 39.47892925 25.29137754 44.8827674 25.28662109 50.28662109 C25.2811785 56.54242722 25.28294117 62.79820076 25.2884475 69.0540061 C25.29352434 75.061323 25.29299708 81.0686239 25.29006577 87.07594299 C25.28939623 89.63733423 25.29022584 92.1987263 25.29254532 94.76011658 C25.29507027 98.33293903 25.29123346 101.90569793 25.28564453 105.47851562 C25.28766876 106.54868423 25.28969299 107.61885284 25.29177856 108.72145081 C25.28895874 109.68900803 25.28613892 110.65656525 25.28323364 111.65344238 C25.28285662 112.49927132 25.28247959 113.34510025 25.28209114 114.21656036 C25.15625 116.1328125 25.15625 116.1328125 24.15625 117.1328125 C21.87677208 117.2330218 19.59417865 117.26362553 17.3125 117.265625 C16.62820923 117.26658173 15.94391846 117.26753845 15.2388916 117.26852417 C13.78963123 117.2692058 12.34036782 117.26735273 10.89111328 117.26318359 C8.66562072 117.25783502 6.44032999 117.2631291 4.21484375 117.26953125 C2.80989539 117.26887047 1.40494715 117.2675893 0 117.265625 C-1.28712891 117.26449707 -2.57425781 117.26336914 -3.90039062 117.26220703 C-6.84375 117.1328125 -6.84375 117.1328125 -7.84375 116.1328125 C-7.94163264 114.64229982 -7.97006782 113.14716545 -7.97073364 111.65344238 C-7.97355347 110.68588516 -7.97637329 109.71832794 -7.97927856 108.72145081 C-7.97725433 107.6512822 -7.9752301 106.58111359 -7.97314453 105.47851562 C-7.97489685 104.35831528 -7.97664917 103.23811493 -7.97845459 102.08396912 C-7.98287577 98.36065141 -7.97993417 94.63738074 -7.9765625 90.9140625 C-7.97723546 88.33955883 -7.97820542 85.76505521 -7.97946167 83.19055176 C-7.980939 77.78669575 -7.97887754 72.3828576 -7.97412109 66.97900391 C-7.9686785 60.72319778 -7.97044117 54.46742424 -7.9759475 48.2116189 C-7.98102434 42.204302 -7.98049708 36.1970011 -7.97756577 30.18968201 C-7.97689623 27.62829077 -7.97772584 25.0668987 -7.98004532 22.50550842 C-7.98257027 18.93268597 -7.97873346 15.35992707 -7.97314453 11.78710938 C-7.97516876 10.71694077 -7.97719299 9.64677216 -7.97927856 8.54417419 C-7.97645874 7.57661697 -7.97363892 6.60905975 -7.97073364 5.61218262 C-7.97035662 4.76635368 -7.96997959 3.92052475 -7.96959114 3.04906464 C-7.67795249 -1.39187713 -3.5785873 0.00313597 0 0 Z " fill="#000000" transform="translate(36.84375,243.8671875)"/>
<path d="M0 0 C0.96755722 -0.00281982 1.93511444 -0.00563965 2.93199158 -0.00854492 C4.00216019 -0.00652069 5.0723288 -0.00449646 6.17492676 -0.00241089 C7.29512711 -0.00416321 8.41532745 -0.00591553 9.56947327 -0.00772095 C13.29279098 -0.01214213 17.01606164 -0.00920053 20.73937988 -0.00582886 C23.31388356 -0.00650182 25.88838717 -0.00747178 28.46289062 -0.00872803 C33.86674663 -0.01020536 39.27058478 -0.00814389 44.67443848 -0.00338745 C50.9302446 0.00205514 57.18601815 0.00029247 63.44182348 -0.00521386 C69.44914038 -0.0102907 75.45644128 -0.00976344 81.46376038 -0.00683212 C84.02515162 -0.00616259 86.58654368 -0.00699219 89.14793396 -0.00931168 C92.72075641 -0.01183663 96.29351532 -0.00799982 99.86633301 -0.00241089 C101.47158592 -0.00544724 101.47158592 -0.00544724 103.10926819 -0.00854492 C104.56060402 -0.00431519 104.56060402 -0.00431519 106.04125977 0 C106.8870887 0.00037703 107.73291763 0.00075405 108.60437775 0.0011425 C110.52062988 0.12698364 110.52062988 0.12698364 111.52062988 1.12698364 C111.62083918 3.40646156 111.65144291 5.68905499 111.65344238 7.97073364 C111.65439911 8.65502441 111.65535583 9.33931519 111.65634155 10.04434204 C111.65702318 11.49360241 111.65517011 12.94286582 111.65100098 14.39212036 C111.6456524 16.61761292 111.65094648 18.84290365 111.65734863 21.06838989 C111.65668785 22.47333826 111.65540668 23.8782865 111.65344238 25.28323364 C111.65231445 26.57036255 111.65118652 27.85749146 111.65002441 29.18362427 C111.52062988 32.12698364 111.52062988 32.12698364 110.52062988 33.12698364 C109.0301172 33.22486628 107.53498284 33.25330146 106.04125977 33.25396729 C105.07370255 33.25678711 104.10614532 33.25960693 103.10926819 33.26251221 C102.03909958 33.26048798 100.96893097 33.25846375 99.86633301 33.25637817 C98.74613266 33.25813049 97.62593231 33.25988281 96.4717865 33.26168823 C92.74846879 33.26610941 89.02519812 33.26316782 85.30187988 33.25979614 C82.72737621 33.26046911 80.1528726 33.26143907 77.57836914 33.26269531 C72.17451313 33.26417265 66.77067499 33.26211118 61.36682129 33.25735474 C55.11101516 33.25191215 48.85524162 33.25367482 42.59943628 33.25918114 C36.59211938 33.26425798 30.58481848 33.26373072 24.57749939 33.26079941 C22.01610815 33.26012987 19.45471608 33.26095948 16.89332581 33.26327896 C13.32050335 33.26580392 9.74774445 33.2619671 6.17492676 33.25637817 C5.10475815 33.2584024 4.03458954 33.26042664 2.93199158 33.26251221 C1.48065575 33.25828247 1.48065575 33.25828247 0 33.25396729 C-0.84582893 33.25359026 -1.69165787 33.25321323 -2.56311798 33.25282478 C-4.47937012 33.12698364 -4.47937012 33.12698364 -5.47937012 32.12698364 C-5.57957942 29.84750573 -5.61018315 27.56491229 -5.61218262 25.28323364 C-5.61313934 24.59894287 -5.61409607 23.9146521 -5.61508179 23.20962524 C-5.61576341 21.76036487 -5.61391034 20.31110146 -5.60974121 18.86184692 C-5.60439264 16.63635436 -5.60968672 14.41106363 -5.61608887 12.18557739 C-5.61542808 10.78062903 -5.61414691 9.37568079 -5.61218262 7.97073364 C-5.61105469 6.68360474 -5.60992676 5.39647583 -5.60876465 4.07034302 C-5.40655705 -0.52930764 -4.17573891 0.00186132 0 0 Z " fill="#000000" transform="translate(248.4793701171875,116.87301635742188)"/>
<path d="M0 0 C0.96755722 -0.00281982 1.93511444 -0.00563965 2.93199158 -0.00854492 C4.00216019 -0.00652069 5.0723288 -0.00449646 6.17492676 -0.00241089 C7.29512711 -0.00416321 8.41532745 -0.00591553 9.56947327 -0.00772095 C13.29279098 -0.01214213 17.01606164 -0.00920053 20.73937988 -0.00582886 C23.31388356 -0.00650182 25.88838717 -0.00747178 28.46289062 -0.00872803 C33.86674663 -0.01020536 39.27058478 -0.00814389 44.67443848 -0.00338745 C50.9302446 0.00205514 57.18601815 0.00029247 63.44182348 -0.00521386 C69.44914038 -0.0102907 75.45644128 -0.00976344 81.46376038 -0.00683212 C84.02515162 -0.00616259 86.58654368 -0.00699219 89.14793396 -0.00931168 C92.72075641 -0.01183663 96.29351532 -0.00799982 99.86633301 -0.00241089 C101.47158592 -0.00544724 101.47158592 -0.00544724 103.10926819 -0.00854492 C104.56060402 -0.00431519 104.56060402 -0.00431519 106.04125977 0 C106.8870887 0.00037703 107.73291763 0.00075405 108.60437775 0.0011425 C110.52062988 0.12698364 110.52062988 0.12698364 111.52062988 1.12698364 C111.62083918 3.40646156 111.65144291 5.68905499 111.65344238 7.97073364 C111.65439911 8.65502441 111.65535583 9.33931519 111.65634155 10.04434204 C111.65702318 11.49360241 111.65517011 12.94286582 111.65100098 14.39212036 C111.6456524 16.61761292 111.65094648 18.84290365 111.65734863 21.06838989 C111.65668785 22.47333826 111.65540668 23.8782865 111.65344238 25.28323364 C111.65231445 26.57036255 111.65118652 27.85749146 111.65002441 29.18362427 C111.52062988 32.12698364 111.52062988 32.12698364 110.52062988 33.12698364 C109.0301172 33.22486628 107.53498284 33.25330146 106.04125977 33.25396729 C105.07370255 33.25678711 104.10614532 33.25960693 103.10926819 33.26251221 C102.03909958 33.26048798 100.96893097 33.25846375 99.86633301 33.25637817 C98.74613266 33.25813049 97.62593231 33.25988281 96.4717865 33.26168823 C92.74846879 33.26610941 89.02519812 33.26316782 85.30187988 33.25979614 C82.72737621 33.26046911 80.1528726 33.26143907 77.57836914 33.26269531 C72.17451313 33.26417265 66.77067499 33.26211118 61.36682129 33.25735474 C55.11101516 33.25191215 48.85524162 33.25367482 42.59943628 33.25918114 C36.59211938 33.26425798 30.58481848 33.26373072 24.57749939 33.26079941 C22.01610815 33.26012987 19.45471608 33.26095948 16.89332581 33.26327896 C13.32050335 33.26580392 9.74774445 33.2619671 6.17492676 33.25637817 C5.10475815 33.2584024 4.03458954 33.26042664 2.93199158 33.26251221 C1.48065575 33.25828247 1.48065575 33.25828247 0 33.25396729 C-0.84582893 33.25359026 -1.69165787 33.25321323 -2.56311798 33.25282478 C-4.47937012 33.12698364 -4.47937012 33.12698364 -5.47937012 32.12698364 C-5.57957942 29.84750573 -5.61018315 27.56491229 -5.61218262 25.28323364 C-5.61313934 24.59894287 -5.61409607 23.9146521 -5.61508179 23.20962524 C-5.61576341 21.76036487 -5.61391034 20.31110146 -5.60974121 18.86184692 C-5.60439264 16.63635436 -5.60968672 14.41106363 -5.61608887 12.18557739 C-5.61542808 10.78062903 -5.61414691 9.37568079 -5.61218262 7.97073364 C-5.61105469 6.68360474 -5.60992676 5.39647583 -5.60876465 4.07034302 C-5.40655705 -0.52930764 -4.17573891 0.00186132 0 0 Z " fill="#000000" transform="translate(248.4793701171875,74.87301635742188)"/>
<path d="M0 0 C0.96755722 -0.00281982 1.93511444 -0.00563965 2.93199158 -0.00854492 C4.00216019 -0.00652069 5.0723288 -0.00449646 6.17492676 -0.00241089 C7.29512711 -0.00416321 8.41532745 -0.00591553 9.56947327 -0.00772095 C13.29279098 -0.01214213 17.01606164 -0.00920053 20.73937988 -0.00582886 C23.31388356 -0.00650182 25.88838717 -0.00747178 28.46289062 -0.00872803 C33.86674663 -0.01020536 39.27058478 -0.00814389 44.67443848 -0.00338745 C50.9302446 0.00205514 57.18601815 0.00029247 63.44182348 -0.00521386 C69.44914038 -0.0102907 75.45644128 -0.00976344 81.46376038 -0.00683212 C84.02515162 -0.00616259 86.58654368 -0.00699219 89.14793396 -0.00931168 C92.72075641 -0.01183663 96.29351532 -0.00799982 99.86633301 -0.00241089 C101.47158592 -0.00544724 101.47158592 -0.00544724 103.10926819 -0.00854492 C104.56060402 -0.00431519 104.56060402 -0.00431519 106.04125977 0 C106.8870887 0.00037703 107.73291763 0.00075405 108.60437775 0.0011425 C110.52062988 0.12698364 110.52062988 0.12698364 111.52062988 1.12698364 C111.62083918 3.40646156 111.65144291 5.68905499 111.65344238 7.97073364 C111.65439911 8.65502441 111.65535583 9.33931519 111.65634155 10.04434204 C111.65702318 11.49360241 111.65517011 12.94286582 111.65100098 14.39212036 C111.6456524 16.61761292 111.65094648 18.84290365 111.65734863 21.06838989 C111.65668785 22.47333826 111.65540668 23.8782865 111.65344238 25.28323364 C111.65231445 26.57036255 111.65118652 27.85749146 111.65002441 29.18362427 C111.52062988 32.12698364 111.52062988 32.12698364 110.52062988 33.12698364 C109.0301172 33.22486628 107.53498284 33.25330146 106.04125977 33.25396729 C105.07370255 33.25678711 104.10614532 33.25960693 103.10926819 33.26251221 C102.03909958 33.26048798 100.96893097 33.25846375 99.86633301 33.25637817 C98.74613266 33.25813049 97.62593231 33.25988281 96.4717865 33.26168823 C92.74846879 33.26610941 89.02519812 33.26316782 85.30187988 33.25979614 C82.72737621 33.26046911 80.1528726 33.26143907 77.57836914 33.26269531 C72.17451313 33.26417265 66.77067499 33.26211118 61.36682129 33.25735474 C55.11101516 33.25191215 48.85524162 33.25367482 42.59943628 33.25918114 C36.59211938 33.26425798 30.58481848 33.26373072 24.57749939 33.26079941 C22.01610815 33.26012987 19.45471608 33.26095948 16.89332581 33.26327896 C13.32050335 33.26580392 9.74774445 33.2619671 6.17492676 33.25637817 C5.10475815 33.2584024 4.03458954 33.26042664 2.93199158 33.26251221 C1.48065575 33.25828247 1.48065575 33.25828247 0 33.25396729 C-0.84582893 33.25359026 -1.69165787 33.25321323 -2.56311798 33.25282478 C-4.47937012 33.12698364 -4.47937012 33.12698364 -5.47937012 32.12698364 C-5.57957942 29.84750573 -5.61018315 27.56491229 -5.61218262 25.28323364 C-5.61313934 24.59894287 -5.61409607 23.9146521 -5.61508179 23.20962524 C-5.61576341 21.76036487 -5.61391034 20.31110146 -5.60974121 18.86184692 C-5.60439264 16.63635436 -5.60968672 14.41106363 -5.61608887 12.18557739 C-5.61542808 10.78062903 -5.61414691 9.37568079 -5.61218262 7.97073364 C-5.61105469 6.68360474 -5.60992676 5.39647583 -5.60876465 4.07034302 C-5.40655705 -0.52930764 -4.17573891 0.00186132 0 0 Z " fill="#000000" transform="translate(248.4793701171875,32.873016357421875)"/>
<path d="M0 0 C10.89 0 21.78 0 33 0 C33.02254768 14.97686593 33.04097956 29.95372321 33.05181217 44.93060207 C33.05697496 51.88416081 33.06401734 58.83770827 33.07543945 65.79125977 C33.08644694 72.49557209 33.09227621 79.19987025 33.09487724 85.90419197 C33.09673202 88.46837613 33.10035364 91.03255962 33.10573006 93.59673882 C33.11293659 97.17445158 33.11399111 100.75211519 33.11352539 104.32983398 C33.11712067 105.40157364 33.12071594 106.47331329 33.12442017 107.57752991 C33.1230455 108.54653229 33.12167084 109.51553467 33.12025452 110.51390076 C33.12117631 111.36102851 33.1220981 112.20815626 33.12304783 113.08095455 C33 115 33 115 32 116 C29.72052208 116.1002093 27.43792865 116.13081303 25.15625 116.1328125 C24.47195923 116.13376923 23.78766846 116.13472595 23.0826416 116.13571167 C21.63338123 116.1363933 20.18411782 116.13454023 18.73486328 116.13037109 C16.50937072 116.12502252 14.28407999 116.1303166 12.05859375 116.13671875 C10.65364539 116.13605797 9.24869715 116.1347768 7.84375 116.1328125 C6.55662109 116.13168457 5.26949219 116.13055664 3.94335938 116.12939453 C1 116 1 116 0 115 C-0.09571971 113.50716202 -0.12188227 112.00980345 -0.12025452 110.51390076 C-0.12162918 109.54489838 -0.12300385 108.575896 -0.12442017 107.57752991 C-0.12082489 106.50579025 -0.11722961 105.4340506 -0.11352539 104.32983398 C-0.11367142 103.20802734 -0.11381744 102.0862207 -0.1139679 100.93041992 C-0.1132682 97.20229189 -0.10547315 93.47421311 -0.09765625 89.74609375 C-0.09579227 87.16919482 -0.09436827 84.59229553 -0.09336853 82.01539612 C-0.08993342 75.91324885 -0.0820426 69.81112206 -0.07201904 63.70898253 C-0.06085689 56.7635075 -0.0553472 49.81803165 -0.05032361 42.87254989 C-0.03985996 28.58168876 -0.02151489 14.29084866 0 0 Z " fill="#000000" transform="translate(494,243)"/>
<path d="M0 0 C5.12570473 4.29727503 9.95203157 8.78897581 14.6953125 13.50244141 C15.42945877 14.22841019 16.16360504 14.95437897 16.91999817 15.7023468 C19.32467695 18.08240317 21.72536761 20.46641879 24.125 22.8515625 C24.94727081 23.66850964 25.76954163 24.48545677 26.61672974 25.32715988 C30.95652392 29.64034173 35.29271742 33.95711032 39.62646484 38.27636719 C43.21624137 41.85273408 46.81317245 45.42166643 50.41650391 48.984375 C54.77330804 53.29207495 59.1179097 57.61172103 63.45379639 61.94047165 C65.1082625 63.58820136 66.7669989 65.2316545 68.42999268 66.87077713 C70.74507842 69.1544756 73.04413701 71.45319259 75.33984375 73.75634766 C76.0337471 74.43384567 76.72765045 75.11134369 77.44258118 75.80937195 C78.06215195 76.4372612 78.68172272 77.06515045 79.32006836 77.71206665 C79.86497421 78.25366236 80.40988007 78.79525806 80.97129822 79.35326576 C82 81 82 81 81.77864075 83.06711388 C79.88129099 87.77706648 75.27527983 91.27943237 71.75 94.8125 C70.46029297 96.15731445 70.46029297 96.15731445 69.14453125 97.52929688 C68.30792969 98.37169922 67.47132813 99.21410156 66.609375 100.08203125 C65.84592773 100.85780518 65.08248047 101.6335791 64.29589844 102.43286133 C62 104 62 104 59.58195305 103.79122639 C56.72679476 102.91627764 55.49311562 101.99760212 53.39285278 99.90751648 C52.71981613 99.24720428 52.04677948 98.58689209 51.35334778 97.90657043 C50.63104477 97.17774155 49.90874176 96.44891266 49.16455078 95.69799805 C48.00524803 94.55161865 48.00524803 94.55161865 46.82252502 93.38208008 C44.26982185 90.85208759 41.73214765 88.30761502 39.1953125 85.76171875 C37.42937717 84.00101564 35.66292116 82.24083462 33.89596558 80.4811554 C29.72171365 76.31865043 25.5582459 72.14555845 21.39813793 67.96892339 C17.60374474 64.16202313 13.79295051 60.37189047 9.97798359 56.58562249 C5.85171389 52.48922366 1.73946871 48.37899854 -2.36719131 44.26294899 C-4.11695061 42.51236711 -5.87058721 40.76565214 -7.62807846 39.02283287 C-10.07784991 36.59039163 -12.5112366 34.1426714 -14.94091797 31.69018555 C-16.04259056 30.60605125 -16.04259056 30.60605125 -17.16651917 29.50001526 C-17.82263687 28.83124359 -18.47875458 28.16247192 -19.15475464 27.47343445 C-20.02025594 26.60705369 -20.02025594 26.60705369 -20.90324211 25.72317028 C-22 24 -22 24 -21.79194832 21.91930866 C-20.66095027 19.17830361 -18.92049036 17.56709108 -16.81640625 15.48828125 C-15.54893555 14.22854492 -15.54893555 14.22854492 -14.25585938 12.94335938 C-13.36705078 12.07517578 -12.47824219 11.20699219 -11.5625 10.3125 C-10.23508789 8.99282227 -10.23508789 8.99282227 -8.88085938 7.64648438 C-2.3085724 1.1542862 -2.3085724 1.1542862 0 0 Z " fill="#000000" transform="translate(415,100)"/>
<path d="M0 0 C2.73214988 1.12593234 4.35036189 2.85065966 6.43102741 4.939394 C7.27085163 5.77986275 8.11067585 6.6203315 8.97594929 7.486269 C9.84413288 8.37056587 10.71231647 9.25486275 11.60680866 10.1659565 C12.48659382 11.042519 13.36637897 11.9190815 14.27282429 12.8222065 C20.78579446 19.39041389 20.78579446 19.39041389 21.91930866 22.7909565 C11.44251533 33.38445172 0.95149447 43.96369441 -9.55670834 54.52603436 C-14.43531507 59.43044392 -19.30912787 64.33944685 -24.17199993 69.25946236 C-28.86148565 74.00402773 -33.5638291 78.73548355 -38.27443981 83.45909119 C-40.07302101 85.26693916 -41.86718229 87.07919513 -43.65690136 88.8958168 C-46.15686194 91.43186428 -48.67182181 93.9520404 -51.1910429 96.46893501 C-51.93407162 97.22994011 -52.67710033 97.99094521 -53.44264507 98.77501106 C-54.12969021 99.45518288 -54.81673534 100.13535469 -55.52460003 100.83613777 C-56.11823471 101.43438142 -56.71186939 102.03262506 -57.323493 102.64899731 C-59.08069134 103.7909565 -59.08069134 103.7909565 -61.16456509 103.58677769 C-65.85913463 101.63699076 -69.3534739 97.07287147 -72.89319134 93.5409565 C-74.23800579 92.25124947 -74.23800579 92.25124947 -75.60998821 90.93548775 C-76.45239056 90.09888618 -77.2947929 89.26228462 -78.16272259 88.4003315 C-78.93849651 87.63688423 -79.71427044 86.87343697 -80.51355267 86.08685493 C-82.08069134 83.7909565 -82.08069134 83.7909565 -81.87191772 81.37290955 C-80.99696898 78.51775126 -80.07829346 77.28407212 -77.98820782 75.18380928 C-76.99773952 74.1742543 -76.99773952 74.1742543 -75.98726177 73.14430428 C-75.25843288 72.42200127 -74.529604 71.69969826 -73.77868938 70.95550728 C-73.01443645 70.18263878 -72.25018353 69.40977028 -71.46277142 68.61348152 C-68.93277893 66.06077835 -66.38830636 63.52310415 -63.84241009 60.986269 C-62.08170698 59.22033367 -60.32152596 57.45387766 -58.56184673 55.68692207 C-54.39934177 51.51267015 -50.22624979 47.34920239 -46.04961473 43.18909442 C-42.24271447 39.39470124 -38.4525818 35.58390701 -34.66631383 31.76894009 C-30.56991499 27.64267038 -26.45968988 23.5304252 -22.34364033 19.42376518 C-20.59305845 17.67400589 -18.84634348 15.92036929 -17.10352421 14.16287804 C-14.67108297 11.71310659 -12.22336274 9.27971989 -9.77087688 6.85003853 C-9.04812069 6.11559013 -8.32536449 5.38114174 -7.5807066 4.62443733 C-6.5775491 3.64026077 -6.5775491 3.64026077 -5.55412579 2.63620186 C-4.97653861 2.05920099 -4.39895144 1.48220013 -3.80386162 0.88771439 C-2.08069134 -0.2090435 -2.08069134 -0.2090435 0 0 Z " fill="#000000" transform="translate(182.08069133758545,98.20904350280762)"/>
<path d="M0 0 C4.69456955 1.94978693 8.18890881 6.51390621 11.72862625 10.04582119 C13.0734407 11.33552822 13.0734407 11.33552822 14.44542313 12.65128994 C15.28782547 13.4878915 16.13022781 14.32449306 16.9981575 15.18644619 C17.77393143 15.94989346 18.54970535 16.71334072 19.34898758 17.49992275 C20.91612625 19.79582119 20.91612625 19.79582119 20.70903492 22.21428871 C19.8290397 25.07935545 18.9062635 26.30007467 16.79672623 28.39623928 C16.13063339 29.06783077 15.46454056 29.73942226 14.77826309 30.43136501 C13.67559349 31.51246296 13.67559349 31.51246296 12.55064774 32.61540127 C11.39463058 33.77229458 11.39463058 33.77229458 10.21525955 34.95255947 C7.66527956 37.49975255 5.10142346 40.03248496 2.53722 42.56535244 C0.76657973 44.32853256 -1.00317954 46.09259783 -2.77209091 47.85751247 C-6.95443717 52.02614614 -11.14559657 56.18577908 -15.3411178 60.3411414 C-20.58671793 65.53761793 -25.81850029 70.74793826 -31.05067062 75.95793056 C-40.38402375 85.24838193 -49.7295917 94.52644532 -59.08387375 103.79582119 C-63.0606656 102.30507653 -65.46325542 100.79216114 -68.47449875 97.76847744 C-69.26598312 96.97634853 -70.0574675 96.18421963 -70.87293625 95.36808681 C-71.68504562 94.53986416 -72.497155 93.7116415 -73.33387375 92.85832119 C-74.16145187 92.03396572 -74.98903 91.20961025 -75.84168625 90.36027431 C-81.95027968 84.1966034 -81.95027968 84.1966034 -83.08387375 80.79582119 C-72.60708041 70.20232597 -62.11605955 59.62308328 -51.60785675 49.06074333 C-46.72925002 44.15633376 -41.85543722 39.24733084 -36.99256516 34.32731533 C-32.30307944 29.58274995 -27.60073599 24.85129414 -22.89012527 20.1276865 C-21.09154407 18.31983852 -19.29738279 16.50758256 -17.50766373 14.69096088 C-15.00770315 12.15491341 -12.49274327 9.63473729 -9.97352219 7.11784267 C-8.85897911 5.97633503 -8.85897911 5.97633503 -7.72192001 4.81176662 C-7.03487488 4.13159481 -6.34782974 3.451423 -5.63996506 2.75063992 C-5.04633038 2.15239627 -4.45269569 1.55415262 -3.84107208 0.93778038 C-2.08387375 -0.20417881 -2.08387375 -0.20417881 0 0 Z " fill="#000000" transform="translate(212.0838737487793,128.20417881011963)"/>
<path d="M0 0 C2.86506673 0.87999522 4.08578596 1.80277142 6.18195057 3.91230869 C6.85354206 4.57840153 7.52513355 5.24449436 8.2170763 5.93077183 C9.29817425 7.03344143 9.29817425 7.03344143 10.40111256 8.15838718 C11.55800587 9.31440434 11.55800587 9.31440434 12.73827076 10.49377537 C15.28546383 13.04375536 17.81819625 15.60761146 20.35106373 18.17181492 C22.11424385 19.94245519 23.87830912 21.71221446 25.64322376 23.48112583 C29.81185743 27.66347209 33.97149037 31.85463149 38.12685269 36.05015272 C43.32332922 41.29575285 48.53364955 46.52753521 53.74364185 51.75970554 C63.03409321 61.09305867 72.31215661 70.43862662 81.58153248 79.79290867 C80.09078782 83.76970052 78.57787243 86.17229034 75.55418873 89.18353367 C74.76205982 89.97501804 73.96993092 90.76650242 73.1537981 91.58197117 C71.91146412 92.80013523 71.91146412 92.80013523 70.64403248 94.04290867 C69.81967701 94.87048679 68.99532154 95.69806492 68.1459856 96.55072117 C61.98231469 102.6593146 61.98231469 102.6593146 58.58153248 103.79290867 C47.98803726 93.31611533 37.40879457 82.82509447 26.84645462 72.31689167 C21.94204505 67.43828494 17.03304213 62.56447214 12.11302662 57.70160007 C7.36846124 53.01211436 2.63700543 48.30977091 -2.08660221 43.59916019 C-3.89445019 41.80057899 -5.70670616 40.00641771 -7.52332783 38.21669865 C-10.0593753 35.71673807 -12.57955143 33.20177819 -15.09644604 30.68255711 C-15.85745113 29.93952839 -16.61845623 29.19649967 -17.40252209 28.43095493 C-18.0826939 27.7439098 -18.76286572 27.05686466 -19.4636488 26.34899998 C-20.06189244 25.7553653 -20.66013609 25.16173061 -21.27650833 24.550107 C-22.41846752 22.79290867 -22.41846752 22.79290867 -22.21428871 20.70903492 C-20.26450178 16.01446537 -15.7003825 12.52012611 -12.16846752 8.98040867 C-11.30866283 8.0838657 -10.44885815 7.18732273 -9.56299877 6.26361179 C-8.30809643 5.00000828 -8.30809643 5.00000828 -7.02784252 3.71087742 C-5.88267162 2.54721653 -5.88267162 2.54721653 -4.71436596 1.36004734 C-2.41846752 -0.20709133 -2.41846752 -0.20709133 0 0 Z " fill="#000000" transform="translate(445.4184675216675,71.20709133148193)"/>
<path d="M0 0 C5.60025819 2.64959143 9.45381666 7.04513969 13.8125 11.375 C15.15731445 12.67050781 15.15731445 12.67050781 16.52929688 13.9921875 C17.37169922 14.8275 18.21410156 15.6628125 19.08203125 16.5234375 C20.24569214 17.6669165 20.24569214 17.6669165 21.43286133 18.83349609 C23 21 23 21 22.79122639 22.9174757 C21.86097305 25.36592183 20.75126724 26.63121593 18.90751648 28.4868927 C18.24720428 29.15855469 17.58689209 29.83021667 16.90657043 30.52223206 C16.17774155 31.24813034 15.44891266 31.97402863 14.69799805 32.72192383 C13.93374512 33.4946463 13.16949219 34.26736877 12.38208008 35.06350708 C9.84977175 37.61924437 7.30638052 40.16359751 4.76171875 42.70703125 C3.00123343 44.47461318 1.24104952 46.24249534 -0.5188446 48.01066589 C-4.21009044 51.71536917 -7.90716084 55.41416993 -11.6081543 59.10913086 C-15.88919197 63.38351906 -20.15523457 67.67247215 -24.41437751 71.96866781 C-28.51093395 76.09956666 -32.6212285 80.21655732 -36.73705101 84.32825279 C-38.48777094 86.08067143 -40.2344859 87.83710033 -41.97716713 89.5975132 C-44.40969778 92.05206259 -46.85743477 94.4903535 -49.30981445 96.92504883 C-50.03257065 97.66106827 -50.75532684 98.39708771 -51.49998474 99.15541077 C-52.16875641 99.81297363 -52.83752808 100.4705365 -53.52656555 101.14802551 C-54.10415273 101.7263252 -54.6817399 102.30462488 -55.27682972 102.9004488 C-57 104 -57 104 -59.07396221 103.80008984 C-61.92298959 102.61658354 -63.61271789 100.72165292 -65.765625 98.52734375 C-67.09980469 97.17866211 -67.09980469 97.17866211 -68.4609375 95.80273438 C-69.84152344 94.38444336 -69.84152344 94.38444336 -71.25 92.9375 C-72.19461673 91.97783027 -73.13992195 91.01883771 -74.0859375 90.06054688 C-76.39749172 87.71361172 -78.7017634 85.35996609 -81 83 C-79.64044743 79.96135052 -78.11309872 77.86512063 -75.76034546 75.51983643 C-74.75914421 74.51451118 -74.75914421 74.51451118 -73.73771667 73.48887634 C-72.64043999 72.40238548 -72.64043999 72.40238548 -71.52099609 71.29394531 C-70.75017197 70.52282913 -69.97934784 69.75171295 -69.18516541 68.95722961 C-66.635968 66.40942562 -64.07975928 63.86877909 -61.5234375 61.328125 C-59.75466104 59.56307862 -57.98632561 57.79759018 -56.21841431 56.03167725 C-52.03953172 51.8596509 -47.85621906 47.69210152 -43.67073691 43.52669883 C-38.43740365 38.31792743 -33.21098257 33.10223734 -27.984375 27.88671875 C-18.66178733 18.58558187 -9.33307054 9.29061738 0 0 Z " fill="#000000" transform="translate(509,425)"/>
<path d="M0 0 C2.44844613 0.93025334 3.71374023 2.03995914 5.569417 3.88370991 C6.24107899 4.5440221 6.91274097 5.2043343 7.60475636 5.88465595 C8.69360378 6.97789928 8.69360378 6.97789928 9.80444813 8.09322834 C10.5771706 8.85748127 11.34989307 9.6217342 12.14603138 10.40914631 C14.70176866 12.94145464 17.24612181 15.48484587 19.78955555 18.02950764 C21.55713748 19.78999295 23.32501964 21.55017687 25.09319019 23.31007099 C28.79789347 27.00131683 32.49669423 30.69838723 36.19165516 34.39938068 C40.46604336 38.68041836 44.75499645 42.94646096 49.0511921 47.2056039 C53.18209096 51.30216034 57.29908162 55.41245489 61.41077709 59.5282774 C63.16319573 61.27899732 64.91962463 63.02571228 66.6800375 64.76839352 C69.13458689 67.20092417 71.5728778 69.64866116 74.00757313 72.10104084 C74.74359257 72.82379704 75.47961201 73.54655323 76.23793507 74.29121113 C77.22427937 75.29436863 77.22427937 75.29436863 78.23054981 76.31779194 C78.8088495 76.89537911 79.38714918 77.47296629 79.9829731 78.06805611 C81.0825243 79.79122639 81.0825243 79.79122639 80.88261414 81.8651886 C79.69910784 84.71421598 77.80417722 86.40394428 75.60986805 88.55685139 C74.71074696 89.44630451 73.81162586 90.33575764 72.88525867 91.25216389 C71.93973133 92.17255451 70.99420399 93.09294514 70.0200243 94.04122639 C69.06035457 94.98584311 68.10136201 95.93114834 67.14307117 96.87716389 C64.79613602 99.18871811 62.44249039 101.49298979 60.0825243 103.79122639 C57.04387482 102.43167381 54.94764493 100.9043251 52.60236073 98.55157185 C51.9321439 97.88410435 51.26192707 97.21663685 50.57140064 96.52894306 C49.48490978 95.43166637 49.48490978 95.43166637 48.37646961 94.31222248 C47.60535343 93.54139835 46.83423725 92.77057423 46.03975391 91.97639179 C43.49194992 89.42719439 40.95130339 86.87098567 38.4106493 84.31466389 C36.64560292 82.54588743 34.88011448 80.777552 33.11420155 79.00964069 C28.9421752 74.83075811 24.77462582 70.64744544 20.60922313 66.4619633 C15.40045173 61.22863003 10.18476164 56.00220895 4.96924305 50.77560139 C-4.33189384 41.45301371 -13.62685832 32.12429692 -22.9174757 22.79122639 C-20.26788427 17.19096819 -15.87233601 13.33740973 -11.5424757 8.97872639 C-10.67880383 8.08218342 -9.81513195 7.18564045 -8.9252882 6.26192951 C-8.0899757 5.41952717 -7.2546632 4.57712482 -6.3940382 3.70919514 C-5.63171886 2.93342121 -4.86939953 2.15764729 -4.08397961 1.35836506 C-1.9174757 -0.20877361 -1.9174757 -0.20877361 0 0 Z " fill="#000000" transform="translate(148.91747570037842,371.2087736129761)"/>
<path d="M0 0 C1.33278992 0.00303635 1.33278992 0.00303635 2.69250488 0.00613403 C3.5987561 0.00517731 4.50500732 0.00422058 5.4387207 0.00323486 C7.35876535 0.002553 9.27881229 0.00440771 11.19885254 0.00857544 C14.14861192 0.01392361 17.09821902 0.00863066 20.04797363 0.00222778 C21.90865105 0.00288856 23.76932838 0.00416972 25.63000488 0.00613403 C26.51853149 0.0041098 27.40705811 0.00208557 28.32250977 0 C34.546305 0.02399665 34.546305 0.02399665 35.66125488 1.13894653 C35.76146418 3.41842445 35.79206791 5.70101788 35.79406738 7.98269653 C35.79502411 8.6669873 35.79598083 9.35127808 35.79696655 10.05630493 C35.79764818 11.5055653 35.79579511 12.95482872 35.79162598 14.40408325 C35.7862774 16.62957581 35.79157148 18.85486654 35.79797363 21.08035278 C35.79731285 22.48530115 35.79603168 23.89024939 35.79406738 25.29519653 C35.79293945 26.58232544 35.79181152 27.86945435 35.79064941 29.19558716 C35.66125488 32.13894653 35.66125488 32.13894653 34.66125488 33.13894653 C31.64317425 33.24008353 28.64844976 33.27863562 25.63000488 33.27175903 C24.72375366 33.27271576 23.81750244 33.27367249 22.88378906 33.2746582 C20.96374441 33.27534007 19.04369747 33.27348535 17.12365723 33.26931763 C14.17389785 33.26396946 11.22429074 33.26926241 8.27453613 33.27566528 C6.41385871 33.2750045 4.55318138 33.27372334 2.69250488 33.27175903 C1.35971497 33.27479538 1.35971497 33.27479538 0 33.27789307 C-6.22379523 33.25389642 -6.22379523 33.25389642 -7.33874512 32.13894653 C-7.43895442 29.85946862 -7.46955815 27.57687519 -7.47155762 25.29519653 C-7.47251434 24.61090576 -7.47347107 23.92661499 -7.47445679 23.22158813 C-7.47513841 21.77232776 -7.47328534 20.32306435 -7.46911621 18.87380981 C-7.46376764 16.64831725 -7.46906172 14.42302652 -7.47546387 12.19754028 C-7.47480308 10.79259192 -7.47352191 9.38764368 -7.47155762 7.98269653 C-7.47042969 6.69556763 -7.46930176 5.40843872 -7.46813965 4.08230591 C-7.23421318 -1.23885917 -4.71270579 0.01817045 0 0 Z " fill="#000000" transform="translate(324.3387451171875,539.8610534667969)"/>
<path d="M0 0 C1.33278992 0.00303635 1.33278992 0.00303635 2.69250488 0.00613403 C3.5987561 0.00517731 4.50500732 0.00422058 5.4387207 0.00323486 C7.35876535 0.002553 9.27881229 0.00440771 11.19885254 0.00857544 C14.14861192 0.01392361 17.09821902 0.00863066 20.04797363 0.00222778 C21.90865105 0.00288856 23.76932838 0.00416972 25.63000488 0.00613403 C26.51853149 0.0041098 27.40705811 0.00208557 28.32250977 0 C34.546305 0.02399665 34.546305 0.02399665 35.66125488 1.13894653 C35.76146418 3.41842445 35.79206791 5.70101788 35.79406738 7.98269653 C35.79502411 8.6669873 35.79598083 9.35127808 35.79696655 10.05630493 C35.79764818 11.5055653 35.79579511 12.95482872 35.79162598 14.40408325 C35.7862774 16.62957581 35.79157148 18.85486654 35.79797363 21.08035278 C35.79731285 22.48530115 35.79603168 23.89024939 35.79406738 25.29519653 C35.79293945 26.58232544 35.79181152 27.86945435 35.79064941 29.19558716 C35.66125488 32.13894653 35.66125488 32.13894653 34.66125488 33.13894653 C31.64317425 33.24008353 28.64844976 33.27863562 25.63000488 33.27175903 C24.72375366 33.27271576 23.81750244 33.27367249 22.88378906 33.2746582 C20.96374441 33.27534007 19.04369747 33.27348535 17.12365723 33.26931763 C14.17389785 33.26396946 11.22429074 33.26926241 8.27453613 33.27566528 C6.41385871 33.2750045 4.55318138 33.27372334 2.69250488 33.27175903 C1.35971497 33.27479538 1.35971497 33.27479538 0 33.27789307 C-6.22379523 33.25389642 -6.22379523 33.25389642 -7.33874512 32.13894653 C-7.43895442 29.85946862 -7.46955815 27.57687519 -7.47155762 25.29519653 C-7.47251434 24.61090576 -7.47347107 23.92661499 -7.47445679 23.22158813 C-7.47513841 21.77232776 -7.47328534 20.32306435 -7.46911621 18.87380981 C-7.46376764 16.64831725 -7.46906172 14.42302652 -7.47546387 12.19754028 C-7.47480308 10.79259192 -7.47352191 9.38764368 -7.47155762 7.98269653 C-7.47042969 6.69556763 -7.46930176 5.40843872 -7.46813965 4.08230591 C-7.23421318 -1.23885917 -4.71270579 0.01817045 0 0 Z " fill="#000000" transform="translate(252.3387451171875,539.8610534667969)"/>
<path d="M0 0 C1.33278992 0.00303635 1.33278992 0.00303635 2.69250488 0.00613403 C3.5987561 0.00517731 4.50500732 0.00422058 5.4387207 0.00323486 C7.35876535 0.002553 9.27881229 0.00440771 11.19885254 0.00857544 C14.14861192 0.01392361 17.09821902 0.00863066 20.04797363 0.00222778 C21.90865105 0.00288856 23.76932838 0.00416972 25.63000488 0.00613403 C26.51853149 0.0041098 27.40705811 0.00208557 28.32250977 0 C34.546305 0.02399665 34.546305 0.02399665 35.66125488 1.13894653 C35.76146418 3.41842445 35.79206791 5.70101788 35.79406738 7.98269653 C35.79502411 8.6669873 35.79598083 9.35127808 35.79696655 10.05630493 C35.79764818 11.5055653 35.79579511 12.95482872 35.79162598 14.40408325 C35.7862774 16.62957581 35.79157148 18.85486654 35.79797363 21.08035278 C35.79731285 22.48530115 35.79603168 23.89024939 35.79406738 25.29519653 C35.79293945 26.58232544 35.79181152 27.86945435 35.79064941 29.19558716 C35.66125488 32.13894653 35.66125488 32.13894653 34.66125488 33.13894653 C31.64317425 33.24008353 28.64844976 33.27863562 25.63000488 33.27175903 C24.72375366 33.27271576 23.81750244 33.27367249 22.88378906 33.2746582 C20.96374441 33.27534007 19.04369747 33.27348535 17.12365723 33.26931763 C14.17389785 33.26396946 11.22429074 33.26926241 8.27453613 33.27566528 C6.41385871 33.2750045 4.55318138 33.27372334 2.69250488 33.27175903 C1.35971497 33.27479538 1.35971497 33.27479538 0 33.27789307 C-6.22379523 33.25389642 -6.22379523 33.25389642 -7.33874512 32.13894653 C-7.43895442 29.85946862 -7.46955815 27.57687519 -7.47155762 25.29519653 C-7.47251434 24.61090576 -7.47347107 23.92661499 -7.47445679 23.22158813 C-7.47513841 21.77232776 -7.47328534 20.32306435 -7.46911621 18.87380981 C-7.46376764 16.64831725 -7.46906172 14.42302652 -7.47546387 12.19754028 C-7.47480308 10.79259192 -7.47352191 9.38764368 -7.47155762 7.98269653 C-7.47042969 6.69556763 -7.46930176 5.40843872 -7.46813965 4.08230591 C-7.23421318 -1.23885917 -4.71270579 0.01817045 0 0 Z " fill="#000000" transform="translate(324.3387451171875,499.8610534667969)"/>
<path d="M0 0 C1.33278992 0.00303635 1.33278992 0.00303635 2.69250488 0.00613403 C3.5987561 0.00517731 4.50500732 0.00422058 5.4387207 0.00323486 C7.35876535 0.002553 9.27881229 0.00440771 11.19885254 0.00857544 C14.14861192 0.01392361 17.09821902 0.00863066 20.04797363 0.00222778 C21.90865105 0.00288856 23.76932838 0.00416972 25.63000488 0.00613403 C26.51853149 0.0041098 27.40705811 0.00208557 28.32250977 0 C34.546305 0.02399665 34.546305 0.02399665 35.66125488 1.13894653 C35.76146418 3.41842445 35.79206791 5.70101788 35.79406738 7.98269653 C35.79502411 8.6669873 35.79598083 9.35127808 35.79696655 10.05630493 C35.79764818 11.5055653 35.79579511 12.95482872 35.79162598 14.40408325 C35.7862774 16.62957581 35.79157148 18.85486654 35.79797363 21.08035278 C35.79731285 22.48530115 35.79603168 23.89024939 35.79406738 25.29519653 C35.79293945 26.58232544 35.79181152 27.86945435 35.79064941 29.19558716 C35.66125488 32.13894653 35.66125488 32.13894653 34.66125488 33.13894653 C31.64317425 33.24008353 28.64844976 33.27863562 25.63000488 33.27175903 C24.72375366 33.27271576 23.81750244 33.27367249 22.88378906 33.2746582 C20.96374441 33.27534007 19.04369747 33.27348535 17.12365723 33.26931763 C14.17389785 33.26396946 11.22429074 33.26926241 8.27453613 33.27566528 C6.41385871 33.2750045 4.55318138 33.27372334 2.69250488 33.27175903 C1.35971497 33.27479538 1.35971497 33.27479538 0 33.27789307 C-6.22379523 33.25389642 -6.22379523 33.25389642 -7.33874512 32.13894653 C-7.43895442 29.85946862 -7.46955815 27.57687519 -7.47155762 25.29519653 C-7.47251434 24.61090576 -7.47347107 23.92661499 -7.47445679 23.22158813 C-7.47513841 21.77232776 -7.47328534 20.32306435 -7.46911621 18.87380981 C-7.46376764 16.64831725 -7.46906172 14.42302652 -7.47546387 12.19754028 C-7.47480308 10.79259192 -7.47352191 9.38764368 -7.47155762 7.98269653 C-7.47042969 6.69556763 -7.46930176 5.40843872 -7.46813965 4.08230591 C-7.23421318 -1.23885917 -4.71270579 0.01817045 0 0 Z " fill="#000000" transform="translate(252.3387451171875,499.8610534667969)"/>
<path d="M0 0 C1.33278992 0.00303635 1.33278992 0.00303635 2.69250488 0.00613403 C3.5987561 0.00517731 4.50500732 0.00422058 5.4387207 0.00323486 C7.35876535 0.002553 9.27881229 0.00440771 11.19885254 0.00857544 C14.14861192 0.01392361 17.09821902 0.00863066 20.04797363 0.00222778 C21.90865105 0.00288856 23.76932838 0.00416972 25.63000488 0.00613403 C26.51853149 0.0041098 27.40705811 0.00208557 28.32250977 0 C34.546305 0.02399665 34.546305 0.02399665 35.66125488 1.13894653 C35.76146418 3.41842445 35.79206791 5.70101788 35.79406738 7.98269653 C35.79502411 8.6669873 35.79598083 9.35127808 35.79696655 10.05630493 C35.79764818 11.5055653 35.79579511 12.95482872 35.79162598 14.40408325 C35.7862774 16.62957581 35.79157148 18.85486654 35.79797363 21.08035278 C35.79731285 22.48530115 35.79603168 23.89024939 35.79406738 25.29519653 C35.79293945 26.58232544 35.79181152 27.86945435 35.79064941 29.19558716 C35.66125488 32.13894653 35.66125488 32.13894653 34.66125488 33.13894653 C31.64317425 33.24008353 28.64844976 33.27863562 25.63000488 33.27175903 C24.72375366 33.27271576 23.81750244 33.27367249 22.88378906 33.2746582 C20.96374441 33.27534007 19.04369747 33.27348535 17.12365723 33.26931763 C14.17389785 33.26396946 11.22429074 33.26926241 8.27453613 33.27566528 C6.41385871 33.2750045 4.55318138 33.27372334 2.69250488 33.27175903 C1.35971497 33.27479538 1.35971497 33.27479538 0 33.27789307 C-6.22379523 33.25389642 -6.22379523 33.25389642 -7.33874512 32.13894653 C-7.43895442 29.85946862 -7.46955815 27.57687519 -7.47155762 25.29519653 C-7.47251434 24.61090576 -7.47347107 23.92661499 -7.47445679 23.22158813 C-7.47513841 21.77232776 -7.47328534 20.32306435 -7.46911621 18.87380981 C-7.46376764 16.64831725 -7.46906172 14.42302652 -7.47546387 12.19754028 C-7.47480308 10.79259192 -7.47352191 9.38764368 -7.47155762 7.98269653 C-7.47042969 6.69556763 -7.46930176 5.40843872 -7.46813965 4.08230591 C-7.23421318 -1.23885917 -4.71270579 0.01817045 0 0 Z " fill="#000000" transform="translate(324.3387451171875,457.8610534667969)"/>
<path d="M0 0 C1.33278992 0.00303635 1.33278992 0.00303635 2.69250488 0.00613403 C3.5987561 0.00517731 4.50500732 0.00422058 5.4387207 0.00323486 C7.35876535 0.002553 9.27881229 0.00440771 11.19885254 0.00857544 C14.14861192 0.01392361 17.09821902 0.00863066 20.04797363 0.00222778 C21.90865105 0.00288856 23.76932838 0.00416972 25.63000488 0.00613403 C26.51853149 0.0041098 27.40705811 0.00208557 28.32250977 0 C34.546305 0.02399665 34.546305 0.02399665 35.66125488 1.13894653 C35.76146418 3.41842445 35.79206791 5.70101788 35.79406738 7.98269653 C35.79502411 8.6669873 35.79598083 9.35127808 35.79696655 10.05630493 C35.79764818 11.5055653 35.79579511 12.95482872 35.79162598 14.40408325 C35.7862774 16.62957581 35.79157148 18.85486654 35.79797363 21.08035278 C35.79731285 22.48530115 35.79603168 23.89024939 35.79406738 25.29519653 C35.79293945 26.58232544 35.79181152 27.86945435 35.79064941 29.19558716 C35.66125488 32.13894653 35.66125488 32.13894653 34.66125488 33.13894653 C31.64317425 33.24008353 28.64844976 33.27863562 25.63000488 33.27175903 C24.72375366 33.27271576 23.81750244 33.27367249 22.88378906 33.2746582 C20.96374441 33.27534007 19.04369747 33.27348535 17.12365723 33.26931763 C14.17389785 33.26396946 11.22429074 33.26926241 8.27453613 33.27566528 C6.41385871 33.2750045 4.55318138 33.27372334 2.69250488 33.27175903 C1.35971497 33.27479538 1.35971497 33.27479538 0 33.27789307 C-6.22379523 33.25389642 -6.22379523 33.25389642 -7.33874512 32.13894653 C-7.43895442 29.85946862 -7.46955815 27.57687519 -7.47155762 25.29519653 C-7.47251434 24.61090576 -7.47347107 23.92661499 -7.47445679 23.22158813 C-7.47513841 21.77232776 -7.47328534 20.32306435 -7.46911621 18.87380981 C-7.46376764 16.64831725 -7.46906172 14.42302652 -7.47546387 12.19754028 C-7.47480308 10.79259192 -7.47352191 9.38764368 -7.47155762 7.98269653 C-7.47042969 6.69556763 -7.46930176 5.40843872 -7.46813965 4.08230591 C-7.23421318 -1.23885917 -4.71270579 0.01817045 0 0 Z " fill="#000000" transform="translate(252.3387451171875,457.8610534667969)"/>
<path d="M0 0 C0.68429077 -0.00095673 1.36858154 -0.00191345 2.0736084 -0.00289917 C3.52286877 -0.0035808 4.97213218 -0.00172773 6.42138672 0.00244141 C8.64687928 0.00778998 10.87217001 0.0024959 13.09765625 -0.00390625 C14.50260461 -0.00324547 15.90755285 -0.0019643 17.3125 0 C18.59962891 0.00112793 19.88675781 0.00225586 21.21289062 0.00341797 C24.15625 0.1328125 24.15625 0.1328125 25.15625 1.1328125 C25.257387 4.15089313 25.29593909 7.14561763 25.2890625 10.1640625 C25.29001923 11.07031372 25.29097595 11.97656494 25.29196167 12.91027832 C25.29264353 14.83032297 25.29078882 16.75036991 25.28662109 18.67041016 C25.28127292 21.62016954 25.28656588 24.56977664 25.29296875 27.51953125 C25.29230797 29.38020867 25.29102681 31.240886 25.2890625 33.1015625 C25.29108673 33.99008911 25.29311096 34.87861572 25.29519653 35.79406738 C25.27119988 42.01786262 25.27119988 42.01786262 24.15625 43.1328125 C21.87677208 43.2330218 19.59417865 43.26362553 17.3125 43.265625 C16.62820923 43.26658173 15.94391846 43.26753845 15.2388916 43.26852417 C13.78963123 43.2692058 12.34036782 43.26735273 10.89111328 43.26318359 C8.66562072 43.25783502 6.44032999 43.2631291 4.21484375 43.26953125 C2.80989539 43.26887047 1.40494715 43.2675893 0 43.265625 C-1.28712891 43.26449707 -2.57425781 43.26336914 -3.90039062 43.26220703 C-6.84375 43.1328125 -6.84375 43.1328125 -7.84375 42.1328125 C-7.944887 39.11473187 -7.98343909 36.12000737 -7.9765625 33.1015625 C-7.97751923 32.19531128 -7.97847595 31.28906006 -7.97946167 30.35534668 C-7.98014353 28.43530203 -7.97828882 26.51525509 -7.97412109 24.59521484 C-7.96877292 21.64545546 -7.97406588 18.69584836 -7.98046875 15.74609375 C-7.97980797 13.88541633 -7.97852681 12.024739 -7.9765625 10.1640625 C-7.97858673 9.27553589 -7.98061096 8.38700928 -7.98269653 7.47155762 C-7.9531372 -0.19498007 -7.52845081 0.00659729 0 0 Z " fill="#000000" transform="translate(78.84375,317.8671875)"/>
<path d="M0 0 C0.68429077 -0.00095673 1.36858154 -0.00191345 2.0736084 -0.00289917 C3.52286877 -0.0035808 4.97213218 -0.00172773 6.42138672 0.00244141 C8.64687928 0.00778998 10.87217001 0.0024959 13.09765625 -0.00390625 C14.50260461 -0.00324547 15.90755285 -0.0019643 17.3125 0 C18.59962891 0.00112793 19.88675781 0.00225586 21.21289062 0.00341797 C24.15625 0.1328125 24.15625 0.1328125 25.15625 1.1328125 C25.257387 4.15089313 25.29593909 7.14561763 25.2890625 10.1640625 C25.29001923 11.07031372 25.29097595 11.97656494 25.29196167 12.91027832 C25.29264353 14.83032297 25.29078882 16.75036991 25.28662109 18.67041016 C25.28127292 21.62016954 25.28656588 24.56977664 25.29296875 27.51953125 C25.29230797 29.38020867 25.29102681 31.240886 25.2890625 33.1015625 C25.29108673 33.99008911 25.29311096 34.87861572 25.29519653 35.79406738 C25.27119988 42.01786262 25.27119988 42.01786262 24.15625 43.1328125 C21.87677208 43.2330218 19.59417865 43.26362553 17.3125 43.265625 C16.62820923 43.26658173 15.94391846 43.26753845 15.2388916 43.26852417 C13.78963123 43.2692058 12.34036782 43.26735273 10.89111328 43.26318359 C8.66562072 43.25783502 6.44032999 43.2631291 4.21484375 43.26953125 C2.80989539 43.26887047 1.40494715 43.2675893 0 43.265625 C-1.28712891 43.26449707 -2.57425781 43.26336914 -3.90039062 43.26220703 C-6.84375 43.1328125 -6.84375 43.1328125 -7.84375 42.1328125 C-7.944887 39.11473187 -7.98343909 36.12000737 -7.9765625 33.1015625 C-7.97751923 32.19531128 -7.97847595 31.28906006 -7.97946167 30.35534668 C-7.98014353 28.43530203 -7.97828882 26.51525509 -7.97412109 24.59521484 C-7.96877292 21.64545546 -7.97406588 18.69584836 -7.98046875 15.74609375 C-7.97980797 13.88541633 -7.97852681 12.024739 -7.9765625 10.1640625 C-7.97858673 9.27553589 -7.98061096 8.38700928 -7.98269653 7.47155762 C-7.9531372 -0.19498007 -7.52845081 0.00659729 0 0 Z " fill="#000000" transform="translate(543.84375,315.8671875)"/>
<path d="M0 0 C0.68429077 -0.00095673 1.36858154 -0.00191345 2.0736084 -0.00289917 C3.52286877 -0.0035808 4.97213218 -0.00172773 6.42138672 0.00244141 C8.64687928 0.00778998 10.87217001 0.0024959 13.09765625 -0.00390625 C14.50260461 -0.00324547 15.90755285 -0.0019643 17.3125 0 C18.59962891 0.00112793 19.88675781 0.00225586 21.21289062 0.00341797 C24.15625 0.1328125 24.15625 0.1328125 25.15625 1.1328125 C25.257387 4.15089313 25.29593909 7.14561763 25.2890625 10.1640625 C25.29001923 11.07031372 25.29097595 11.97656494 25.29196167 12.91027832 C25.29264353 14.83032297 25.29078882 16.75036991 25.28662109 18.67041016 C25.28127292 21.62016954 25.28656588 24.56977664 25.29296875 27.51953125 C25.29230797 29.38020867 25.29102681 31.240886 25.2890625 33.1015625 C25.29108673 33.99008911 25.29311096 34.87861572 25.29519653 35.79406738 C25.27119988 42.01786262 25.27119988 42.01786262 24.15625 43.1328125 C21.87677208 43.2330218 19.59417865 43.26362553 17.3125 43.265625 C16.62820923 43.26658173 15.94391846 43.26753845 15.2388916 43.26852417 C13.78963123 43.2692058 12.34036782 43.26735273 10.89111328 43.26318359 C8.66562072 43.25783502 6.44032999 43.2631291 4.21484375 43.26953125 C2.80989539 43.26887047 1.40494715 43.2675893 0 43.265625 C-1.28712891 43.26449707 -2.57425781 43.26336914 -3.90039062 43.26220703 C-6.84375 43.1328125 -6.84375 43.1328125 -7.84375 42.1328125 C-7.944887 39.11473187 -7.98343909 36.12000737 -7.9765625 33.1015625 C-7.97751923 32.19531128 -7.97847595 31.28906006 -7.97946167 30.35534668 C-7.98014353 28.43530203 -7.97828882 26.51525509 -7.97412109 24.59521484 C-7.96877292 21.64545546 -7.97406588 18.69584836 -7.98046875 15.74609375 C-7.97980797 13.88541633 -7.97852681 12.024739 -7.9765625 10.1640625 C-7.97858673 9.27553589 -7.98061096 8.38700928 -7.98269653 7.47155762 C-7.9531372 -0.19498007 -7.52845081 0.00659729 0 0 Z " fill="#000000" transform="translate(459.84375,315.8671875)"/>
<path d="M0 0 C0.68429077 -0.00095673 1.36858154 -0.00191345 2.0736084 -0.00289917 C3.52286877 -0.0035808 4.97213218 -0.00172773 6.42138672 0.00244141 C8.64687928 0.00778998 10.87217001 0.0024959 13.09765625 -0.00390625 C14.50260461 -0.00324547 15.90755285 -0.0019643 17.3125 0 C18.59962891 0.00112793 19.88675781 0.00225586 21.21289062 0.00341797 C24.15625 0.1328125 24.15625 0.1328125 25.15625 1.1328125 C25.257387 4.15089313 25.29593909 7.14561763 25.2890625 10.1640625 C25.29001923 11.07031372 25.29097595 11.97656494 25.29196167 12.91027832 C25.29264353 14.83032297 25.29078882 16.75036991 25.28662109 18.67041016 C25.28127292 21.62016954 25.28656588 24.56977664 25.29296875 27.51953125 C25.29230797 29.38020867 25.29102681 31.240886 25.2890625 33.1015625 C25.29108673 33.99008911 25.29311096 34.87861572 25.29519653 35.79406738 C25.27119988 42.01786262 25.27119988 42.01786262 24.15625 43.1328125 C21.87677208 43.2330218 19.59417865 43.26362553 17.3125 43.265625 C16.62820923 43.26658173 15.94391846 43.26753845 15.2388916 43.26852417 C13.78963123 43.2692058 12.34036782 43.26735273 10.89111328 43.26318359 C8.66562072 43.25783502 6.44032999 43.2631291 4.21484375 43.26953125 C2.80989539 43.26887047 1.40494715 43.2675893 0 43.265625 C-1.28712891 43.26449707 -2.57425781 43.26336914 -3.90039062 43.26220703 C-6.84375 43.1328125 -6.84375 43.1328125 -7.84375 42.1328125 C-7.944887 39.11473187 -7.98343909 36.12000737 -7.9765625 33.1015625 C-7.97751923 32.19531128 -7.97847595 31.28906006 -7.97946167 30.35534668 C-7.98014353 28.43530203 -7.97828882 26.51525509 -7.97412109 24.59521484 C-7.96877292 21.64545546 -7.97406588 18.69584836 -7.98046875 15.74609375 C-7.97980797 13.88541633 -7.97852681 12.024739 -7.9765625 10.1640625 C-7.97858673 9.27553589 -7.98061096 8.38700928 -7.98269653 7.47155762 C-7.9531372 -0.19498007 -7.52845081 0.00659729 0 0 Z " fill="#000000" transform="translate(78.84375,245.8671875)"/>
<path d="M0 0 C0.68429077 -0.00095673 1.36858154 -0.00191345 2.0736084 -0.00289917 C3.52286877 -0.0035808 4.97213218 -0.00172773 6.42138672 0.00244141 C8.64687928 0.00778998 10.87217001 0.0024959 13.09765625 -0.00390625 C14.50260461 -0.00324547 15.90755285 -0.0019643 17.3125 0 C18.59962891 0.00112793 19.88675781 0.00225586 21.21289062 0.00341797 C24.15625 0.1328125 24.15625 0.1328125 25.15625 1.1328125 C25.257387 4.15089313 25.29593909 7.14561763 25.2890625 10.1640625 C25.29001923 11.07031372 25.29097595 11.97656494 25.29196167 12.91027832 C25.29264353 14.83032297 25.29078882 16.75036991 25.28662109 18.67041016 C25.28127292 21.62016954 25.28656588 24.56977664 25.29296875 27.51953125 C25.29230797 29.38020867 25.29102681 31.240886 25.2890625 33.1015625 C25.29108673 33.99008911 25.29311096 34.87861572 25.29519653 35.79406738 C25.27119988 42.01786262 25.27119988 42.01786262 24.15625 43.1328125 C21.87677208 43.2330218 19.59417865 43.26362553 17.3125 43.265625 C16.62820923 43.26658173 15.94391846 43.26753845 15.2388916 43.26852417 C13.78963123 43.2692058 12.34036782 43.26735273 10.89111328 43.26318359 C8.66562072 43.25783502 6.44032999 43.2631291 4.21484375 43.26953125 C2.80989539 43.26887047 1.40494715 43.2675893 0 43.265625 C-1.28712891 43.26449707 -2.57425781 43.26336914 -3.90039062 43.26220703 C-6.84375 43.1328125 -6.84375 43.1328125 -7.84375 42.1328125 C-7.944887 39.11473187 -7.98343909 36.12000737 -7.9765625 33.1015625 C-7.97751923 32.19531128 -7.97847595 31.28906006 -7.97946167 30.35534668 C-7.98014353 28.43530203 -7.97828882 26.51525509 -7.97412109 24.59521484 C-7.96877292 21.64545546 -7.97406588 18.69584836 -7.98046875 15.74609375 C-7.97980797 13.88541633 -7.97852681 12.024739 -7.9765625 10.1640625 C-7.97858673 9.27553589 -7.98061096 8.38700928 -7.98269653 7.47155762 C-7.9531372 -0.19498007 -7.52845081 0.00659729 0 0 Z " fill="#000000" transform="translate(543.84375,243.8671875)"/>
<path d="M0 0 C0.68429077 -0.00095673 1.36858154 -0.00191345 2.0736084 -0.00289917 C3.52286877 -0.0035808 4.97213218 -0.00172773 6.42138672 0.00244141 C8.64687928 0.00778998 10.87217001 0.0024959 13.09765625 -0.00390625 C14.50260461 -0.00324547 15.90755285 -0.0019643 17.3125 0 C18.59962891 0.00112793 19.88675781 0.00225586 21.21289062 0.00341797 C24.15625 0.1328125 24.15625 0.1328125 25.15625 1.1328125 C25.257387 4.15089313 25.29593909 7.14561763 25.2890625 10.1640625 C25.29001923 11.07031372 25.29097595 11.97656494 25.29196167 12.91027832 C25.29264353 14.83032297 25.29078882 16.75036991 25.28662109 18.67041016 C25.28127292 21.62016954 25.28656588 24.56977664 25.29296875 27.51953125 C25.29230797 29.38020867 25.29102681 31.240886 25.2890625 33.1015625 C25.29108673 33.99008911 25.29311096 34.87861572 25.29519653 35.79406738 C25.27119988 42.01786262 25.27119988 42.01786262 24.15625 43.1328125 C21.87677208 43.2330218 19.59417865 43.26362553 17.3125 43.265625 C16.62820923 43.26658173 15.94391846 43.26753845 15.2388916 43.26852417 C13.78963123 43.2692058 12.34036782 43.26735273 10.89111328 43.26318359 C8.66562072 43.25783502 6.44032999 43.2631291 4.21484375 43.26953125 C2.80989539 43.26887047 1.40494715 43.2675893 0 43.265625 C-1.28712891 43.26449707 -2.57425781 43.26336914 -3.90039062 43.26220703 C-6.84375 43.1328125 -6.84375 43.1328125 -7.84375 42.1328125 C-7.944887 39.11473187 -7.98343909 36.12000737 -7.9765625 33.1015625 C-7.97751923 32.19531128 -7.97847595 31.28906006 -7.97946167 30.35534668 C-7.98014353 28.43530203 -7.97828882 26.51525509 -7.97412109 24.59521484 C-7.96877292 21.64545546 -7.97406588 18.69584836 -7.98046875 15.74609375 C-7.97980797 13.88541633 -7.97852681 12.024739 -7.9765625 10.1640625 C-7.97858673 9.27553589 -7.98061096 8.38700928 -7.98269653 7.47155762 C-7.9531372 -0.19498007 -7.52845081 0.00659729 0 0 Z " fill="#000000" transform="translate(459.84375,243.8671875)"/>
<path d="M0 0 C3.47168868 1.28096327 5.80930974 4.0485711 8.38090515 6.6192627 C8.97691025 7.20765427 9.57291534 7.79604584 10.1869812 8.40226746 C11.44224971 9.64674354 12.69357714 10.89520578 13.94120789 12.14733887 C15.85800982 14.06511566 17.79515144 15.96056897 19.73442078 17.85559082 C20.95121388 19.06717895 22.16675311 20.28002793 23.38090515 21.4942627 C23.96411026 22.06107254 24.54731537 22.62788239 25.14819336 23.21186829 C26.74736023 24.8392334 26.74736023 24.8392334 29.0488739 27.75598145 C28.58013403 31.70202539 26.67247694 33.5063681 23.9004364 36.2677002 C23.05996765 37.10752441 22.2194989 37.94734863 21.3535614 38.81262207 C20.46926453 39.68080566 19.58496765 40.54898926 18.6738739 41.44348145 C17.7973114 42.3232666 16.9207489 43.20305176 16.0176239 44.10949707 C9.44941651 50.62246724 9.44941651 50.62246724 6.0488739 51.75598145 C-3.5211261 42.18598145 -13.0911261 32.61598145 -22.9511261 22.75598145 C-20.1492181 17.15216545 -15.963379 13.35993944 -11.5761261 8.94348145 C-10.71245422 8.04693848 -9.84878235 7.15039551 -8.9589386 6.22668457 C-8.1236261 5.38428223 -7.2883136 4.54187988 -6.4276886 3.6739502 C-5.66536926 2.89817627 -4.90304993 2.12240234 -4.11763 1.32312012 C-1.9511261 -0.24401855 -1.9511261 -0.24401855 0 0 Z " fill="#000000" transform="translate(388.9511260986328,130.2440185546875)"/>
<path d="M0 0 C5.60381599 2.801908 9.39604201 6.98774709 13.8125 11.375 C14.70904297 12.23867187 15.60558594 13.10234375 16.52929688 13.9921875 C17.37169922 14.8275 18.21410156 15.6628125 19.08203125 16.5234375 C20.24569214 17.6669165 20.24569214 17.6669165 21.43286133 18.83349609 C23 21 23 21 22.75598145 22.9511261 C21.47501817 26.42281477 18.70741035 28.76043584 16.13671875 31.33203125 C15.25413139 32.22603889 15.25413139 32.22603889 14.35371399 33.1381073 C13.1092379 34.39337581 11.86077567 35.64470323 10.60864258 36.89233398 C8.69086579 38.80913592 6.79541247 40.74627753 4.90039062 42.68554688 C3.6888025 43.90233998 2.47595352 45.11787921 1.26171875 46.33203125 C0.69490891 46.91523636 0.12809906 47.49844147 -0.45588684 48.09931946 C-2.08325195 49.69848633 -2.08325195 49.69848633 -5 52 C-8.94604394 51.53126013 -10.75038666 49.62360304 -13.51171875 46.8515625 C-14.35154297 46.01109375 -15.19136719 45.170625 -16.05664062 44.3046875 C-16.92482422 43.42039063 -17.79300781 42.53609375 -18.6875 41.625 C-19.56728516 40.7484375 -20.44707031 39.871875 -21.35351562 38.96875 C-27.8664858 32.40054261 -27.8664858 32.40054261 -29 29 C-19.43 19.43 -9.86 9.86 0 0 Z " fill="#000000" transform="translate(151,71)"/>
<path d="M0 0 C3.168995 1.99566132 5.72292889 4.54189854 8.37036133 7.16357422 C9.23107491 8.01074509 9.23107491 8.01074509 10.10917664 8.87503052 C11.31621631 10.06759695 12.52049331 11.26296526 13.72216797 12.4609375 C15.56852574 14.29533921 17.43271658 16.11026312 19.2980957 17.92529297 C20.46916162 19.08690116 21.63912289 20.24962429 22.80786133 21.41357422 C23.36919266 21.95537323 23.93052399 22.49717224 24.50886536 23.0553894 C28.2218992 26.81287198 28.2218992 26.81287198 28.37719727 29.49902344 C26.83847454 32.13980434 24.9673703 34.04525292 22.78442383 36.18701172 C21.88530273 37.07646484 20.98618164 37.96591797 20.05981445 38.88232422 C19.11428711 39.80271484 18.16875977 40.72310547 17.19458008 41.67138672 C16.23491034 42.61600344 15.27591779 43.56130867 14.31762695 44.50732422 C11.9706918 46.81887844 9.61704617 49.12315012 7.25708008 51.42138672 C3.1178512 49.77556386 0.26167939 46.78415777 -2.85620117 43.71435547 C-3.43001022 43.15194656 -4.00381927 42.58953766 -4.59501648 42.01008606 C-5.80213914 40.82180975 -7.00641436 39.63063477 -8.20800781 38.43676758 C-10.05276679 36.6115118 -11.91773726 34.80866658 -13.78393555 33.00537109 C-14.95516871 31.84719045 -16.12513555 30.68772751 -17.29370117 29.52685547 C-17.8550325 28.99021774 -18.41636383 28.45358002 -18.9947052 27.90068054 C-22.71881284 24.13254564 -22.71881284 24.13254564 -22.83129883 20.81420898 C-21.52836121 17.9496752 -20.02627239 16.23442215 -17.77807617 14.03076172 C-16.57828125 12.84353516 -16.57828125 12.84353516 -15.35424805 11.63232422 C-14.51313477 10.82021484 -13.67202148 10.00810547 -12.80541992 9.17138672 C-11.96817383 8.34380859 -11.13092773 7.51623047 -10.26831055 6.66357422 C-2.59977063 -0.86306995 -2.59977063 -0.86306995 0 0 Z " fill="#000000" transform="translate(143.742919921875,481.57861328125)"/>
<path d="M0 0 C2.84404063 1.28839306 4.57756097 2.76696436 6.78344727 4.97851562 C7.57493164 5.76935547 8.36641602 6.56019531 9.18188477 7.375 C10.40004883 8.62313477 10.40004883 8.62313477 11.64282227 9.89648438 C12.47040039 10.71697266 13.29797852 11.53746094 14.15063477 12.3828125 C20.93548212 19.23995741 20.93548212 19.23995741 21.39282227 23.08398438 C19.50755306 25.47888975 17.6662336 27.51076804 15.50610352 29.63476562 C14.892686 30.25296677 14.27926849 30.87116791 13.64726257 31.50810242 C12.34602071 32.81274918 11.03843354 34.11109301 9.72509766 35.40356445 C7.71302881 37.38888029 5.72898339 39.39941105 3.74633789 41.4140625 C2.48035987 42.67673653 1.21283172 43.93785869 -0.05639648 45.19726562 C-0.65135422 45.80234451 -1.24631195 46.4074234 -1.85929871 47.03083801 C-3.56689453 48.69067383 -3.56689453 48.69067383 -6.60717773 51.08398438 C-10.69469536 50.62753043 -12.54624298 48.49224479 -15.37280273 45.61132812 C-16.26225586 44.71220703 -17.15170898 43.81308594 -18.06811523 42.88671875 C-19.44870117 41.46842773 -19.44870117 41.46842773 -20.85717773 40.02148438 C-21.80179446 39.06181464 -22.74709968 38.10282209 -23.69311523 37.14453125 C-26.00466946 34.79759609 -28.30894114 32.44395047 -30.60717773 30.08398438 C-28.96135488 25.9447555 -25.96994879 23.08858368 -22.90014648 19.97070312 C-22.33773758 19.39689407 -21.77532867 18.82308502 -21.19587708 18.23188782 C-20.00760076 17.02476516 -18.81642579 15.82048994 -17.62255859 14.61889648 C-15.79730282 12.77413751 -13.9944576 10.90916704 -12.19116211 9.04296875 C-11.03298147 7.87173559 -9.87351853 6.70176875 -8.71264648 5.53320312 C-7.9076899 4.69120613 -7.9076899 4.69120613 -7.08647156 3.8321991 C-3.31708293 0.10685238 -3.31708293 0.10685238 0 0 Z " fill="#000000" transform="translate(400.607177734375,419.916015625)"/>
<path d="M0 0 C3.49159297 1.29569553 5.79422933 4.14403655 8.34475708 6.76385498 C8.9383905 7.36173325 9.53202393 7.95961151 10.14364624 8.5756073 C12.03555403 10.48428975 13.91675707 12.40314413 15.79788208 14.32244873 C17.0797421 15.61935709 18.36228638 16.91558951 19.64553833 18.21112061 C22.7876428 21.3862783 25.92018747 24.57059819 29.04788208 27.75994873 C26.95945144 33.92295293 22.74813708 37.61154206 18.23538208 42.13494873 C17.42778442 42.97928467 16.62018677 43.82362061 15.78811646 44.69354248 C15.0011438 45.48631592 14.21417114 46.27908936 13.40335083 47.09588623 C12.33056885 48.1871582 12.33056885 48.1871582 11.2361145 49.30047607 C9.04788208 50.75994873 9.04788208 50.75994873 6.67532349 50.86419678 C2.91404201 49.28342405 0.43853846 46.6430397 -2.34664917 43.75604248 C-2.93886765 43.15816422 -3.53108612 42.56028595 -4.14125061 41.94429016 C-6.02532261 40.03787856 -7.89498946 38.11801682 -9.76461792 36.19744873 C-11.04168646 34.9003122 -12.31967131 33.60407711 -13.59860229 32.30877686 C-16.72715844 29.13618536 -19.84286981 25.95146045 -22.95211792 22.75994873 C-20.52939919 17.12540176 -15.83387459 13.2325418 -11.57711792 8.94744873 C-10.71344604 8.05090576 -9.84977417 7.15436279 -8.95993042 6.23065186 C-8.12461792 5.38824951 -7.28930542 4.54584717 -6.42868042 3.67791748 C-5.66636108 2.90214355 -4.90404175 2.12636963 -4.11862183 1.3270874 C-1.95211792 -0.24005127 -1.95211792 -0.24005127 0 0 Z " fill="#000000" transform="translate(439.9521179199219,181.24005126953125)"/>
<path d="M0 0 C5.63454697 2.42271873 9.52740693 7.11824333 13.8125 11.375 C14.70904297 12.23867187 15.60558594 13.10234375 16.52929688 13.9921875 C17.37169922 14.8275 18.21410156 15.6628125 19.08203125 16.5234375 C20.24569214 17.6669165 20.24569214 17.6669165 21.43286133 18.83349609 C23 21 23 21 22.75994873 22.95211792 C21.46425321 26.44371089 18.61591218 28.74634725 15.99609375 31.296875 C15.39821548 31.89050842 14.80033722 32.48414185 14.18434143 33.09576416 C12.27565898 34.98767195 10.3568046 36.86887499 8.4375 38.75 C7.14059164 40.03186002 5.84435922 41.3144043 4.54882812 42.59765625 C1.37367043 45.73976072 -1.81064946 48.87230539 -5 52 C-11.1630042 49.91156936 -14.85159333 45.700255 -19.375 41.1875 C-20.21933594 40.37990234 -21.06367187 39.57230469 -21.93359375 38.74023438 C-22.72636719 37.95326172 -23.51914063 37.16628906 -24.3359375 36.35546875 C-25.42720947 35.28268677 -25.42720947 35.28268677 -26.54052734 34.18823242 C-28 32 -28 32 -28.10424805 29.62744141 C-26.52347532 25.86615993 -23.88309097 23.39065637 -20.99609375 20.60546875 C-20.39821548 20.01325027 -19.80033722 19.4210318 -19.18434143 18.81086731 C-17.27792983 16.92679531 -15.35806809 15.05712846 -13.4375 13.1875 C-12.14036347 11.91043146 -10.84412838 10.63244661 -9.54882812 9.35351562 C-6.37623663 6.22495948 -3.19151172 3.10924811 0 0 Z " fill="#000000" transform="translate(100,122)"/>
<path d="M0 0 C3.168995 1.99566132 5.72292889 4.54189854 8.37036133 7.16357422 C9.23107491 8.01074509 9.23107491 8.01074509 10.10917664 8.87503052 C11.31621631 10.06759695 12.52049331 11.26296526 13.72216797 12.4609375 C15.56852574 14.29533921 17.43271658 16.11026312 19.2980957 17.92529297 C20.46916162 19.08690116 21.63912289 20.24962429 22.80786133 21.41357422 C23.36919266 21.95537323 23.93052399 22.49717224 24.50886536 23.0553894 C28.22963245 26.8206978 28.22963245 26.8206978 28.35253906 29.51049805 C25.74556332 34.05803519 21.68159551 37.5512538 18.00708008 41.23388672 C17.14727539 42.13042969 16.2874707 43.02697266 15.40161133 43.95068359 C14.56500977 44.79308594 13.7284082 45.63548828 12.86645508 46.50341797 C12.10300781 47.27919189 11.33956055 48.05496582 10.55297852 48.85424805 C8.25708008 50.42138672 8.25708008 50.42138672 5.85717773 50.5168457 C2.23738841 48.99177578 -0.22343365 46.55155017 -2.95385742 43.81201172 C-3.52625153 43.24818787 -4.09864563 42.68436401 -4.68838501 42.10345459 C-5.89181983 40.91147988 -7.09008263 39.71426356 -8.28344727 38.51220703 C-10.1154307 36.67388456 -11.97249746 34.8638426 -13.83276367 33.05419922 C-14.99974737 31.8917599 -16.16516789 30.72774873 -17.32885742 29.56201172 C-17.8870517 29.02223694 -18.44524597 28.48246216 -19.02035522 27.92633057 C-22.71931702 24.13602635 -22.71931702 24.13602635 -22.82910156 20.81201172 C-21.5277504 17.94781065 -20.02558093 16.23374438 -17.77807617 14.03076172 C-16.57828125 12.84353516 -16.57828125 12.84353516 -15.35424805 11.63232422 C-14.51313477 10.82021484 -13.67202148 10.00810547 -12.80541992 9.17138672 C-11.96817383 8.34380859 -11.13092773 7.51623047 -10.26831055 6.66357422 C-2.59977063 -0.86306995 -2.59977063 -0.86306995 0 0 Z " fill="#000000" transform="translate(171.742919921875,453.57861328125)"/>
<path d="M0 0 C2.84372202 1.28681906 4.57603109 2.7654362 6.78125 4.97631836 C7.57273437 5.7671582 8.36421875 6.55799805 9.1796875 7.37280273 C10.39785156 8.6209375 10.39785156 8.6209375 11.640625 9.89428711 C12.46820313 10.71477539 13.29578125 11.53526367 14.1484375 12.38061523 C20.93328485 19.23776014 20.93328485 19.23776014 21.390625 23.08178711 C19.5053558 25.47669248 17.66403634 27.50857077 15.50390625 29.63256836 C14.89048874 30.2507695 14.27707123 30.86897064 13.64506531 31.50590515 C12.34382345 32.81055192 11.03623627 34.10889574 9.72290039 35.40136719 C7.71083155 37.38668303 5.72678612 39.39721379 3.74414062 41.41186523 C2.4781626 42.67453927 1.21063445 43.93566142 -0.05859375 45.19506836 C-0.65355148 45.80014725 -1.24850922 46.40522614 -1.86149597 47.02864075 C-3.5690918 48.68847656 -3.5690918 48.68847656 -6.609375 51.08178711 C-12.55822348 50.3879996 -16.40399228 44.84081336 -20.421875 40.83178711 C-21.31841797 39.97198242 -22.21496094 39.11217773 -23.13867188 38.22631836 C-23.98107422 37.3897168 -24.82347656 36.55311523 -25.69140625 35.69116211 C-26.46718018 34.92771484 -27.2429541 34.16426758 -28.04223633 33.37768555 C-29.609375 31.08178711 -29.609375 31.08178711 -29.70483398 28.68188477 C-28.17976406 25.06209544 -25.73953845 22.60127338 -23 19.87084961 C-22.43617615 19.29845551 -21.87235229 18.7260614 -21.29144287 18.13632202 C-20.09946816 16.9328872 -18.90225185 15.73462441 -17.70019531 14.54125977 C-15.86187284 12.70927633 -14.05183088 10.85220957 -12.2421875 8.99194336 C-11.07974818 7.82495966 -9.91573701 6.65953915 -8.75 5.49584961 C-8.21022522 4.93765533 -7.67045044 4.37946106 -7.11431885 3.80435181 C-3.32274044 0.10414652 -3.32274044 0.10414652 0 0 Z " fill="#000000" transform="translate(428.609375,447.918212890625)"/>
<path d="M0 0 C4.15125625 1.64496739 6.99807357 4.65728755 10.11328125 7.7421875 C10.97399483 8.58935837 10.97399483 8.58935837 11.85209656 9.4536438 C13.05913623 10.64621023 14.26341323 11.84157854 15.46508789 13.03955078 C17.31144566 14.87395249 19.1756365 16.6888764 21.04101562 18.50390625 C22.21208154 19.66551445 23.38204281 20.82823757 24.55078125 21.9921875 C25.11211258 22.53398651 25.67344391 23.07578552 26.25178528 23.63400269 C29.96481912 27.39148526 29.96481912 27.39148526 30.12011719 30.07763672 C28.58139446 32.71841762 26.71029022 34.6238662 24.52734375 36.765625 C23.62822266 37.65507812 22.72910156 38.54453125 21.80273438 39.4609375 C20.85720703 40.38132812 19.91167969 41.30171875 18.9375 42.25 C17.97783027 43.19461673 17.01883771 44.13992195 16.06054688 45.0859375 C13.71361172 47.39749172 11.35996609 49.7017634 9 52 C4.84874375 50.35503261 2.00192643 47.34271245 -1.11328125 44.2578125 C-1.6870903 43.69303192 -2.26089935 43.12825134 -2.85209656 42.5463562 C-4.05913623 41.35378977 -5.26341323 40.15842146 -6.46508789 38.96044922 C-8.31144566 37.12604751 -10.1756365 35.3111236 -12.04101562 33.49609375 C-13.21208154 32.33448555 -14.38204281 31.17176243 -15.55078125 30.0078125 C-16.11211258 29.46601349 -16.67344391 28.92421448 -17.25178528 28.36599731 C-20.96481912 24.60851474 -20.96481912 24.60851474 -21.12011719 21.92236328 C-19.58139446 19.28158238 -17.71029022 17.3761338 -15.52734375 15.234375 C-14.62822266 14.34492188 -13.72910156 13.45546875 -12.80273438 12.5390625 C-11.85720703 11.61867188 -10.91167969 10.69828125 -9.9375 9.75 C-8.97783027 8.80538327 -8.01883771 7.86007805 -7.06054688 6.9140625 C-4.71361172 4.60250828 -2.35996609 2.2982366 0 0 Z " fill="#000000" transform="translate(91,430)"/>
<path d="M0 0 C2.6407809 1.53872273 4.54622948 3.40982697 6.68798828 5.59277344 C7.57744141 6.49189453 8.46689453 7.39101563 9.38330078 8.31738281 C10.30369141 9.26291016 11.22408203 10.2084375 12.17236328 11.18261719 C13.11698001 12.14228692 14.06228523 13.10127947 15.00830078 14.05957031 C17.319855 16.40650547 19.62412668 18.76015109 21.92236328 21.12011719 C20.27739589 25.27137344 17.26507573 28.11819076 14.18017578 31.23339844 C13.33300491 32.09411201 13.33300491 32.09411201 12.46871948 32.97221375 C11.27615305 34.17925342 10.08078474 35.38353042 8.8828125 36.58520508 C7.04841079 38.43156285 5.23348688 40.29575369 3.41845703 42.16113281 C2.25684884 43.33219873 1.09412571 44.50216 -0.06982422 45.67089844 C-0.61162323 46.23222977 -1.15342224 46.7935611 -1.7116394 47.37190247 C-5.46912198 51.08493631 -5.46912198 51.08493631 -8.15527344 51.24023438 C-10.79605434 49.70151165 -12.70150292 47.83040741 -14.84326172 45.64746094 C-15.73271484 44.74833984 -16.62216797 43.84921875 -17.53857422 42.92285156 C-18.91916016 41.50456055 -18.91916016 41.50456055 -20.32763672 40.05761719 C-21.27225344 39.09794745 -22.21755867 38.1389549 -23.16357422 37.18066406 C-25.47512844 34.83372891 -27.77940012 32.48008328 -30.07763672 30.12011719 C-28.43266932 25.96886093 -25.42034916 23.12204361 -22.33544922 20.00683594 C-21.77066864 19.43302689 -21.20588806 18.85921783 -20.62399292 18.26802063 C-19.43142649 17.06098095 -18.23605818 15.85670395 -17.03808594 14.6550293 C-15.20368423 12.80867153 -13.38876032 10.94448069 -11.57373047 9.07910156 C-10.41212227 7.90803565 -9.24939915 6.73807438 -8.08544922 5.56933594 C-7.54365021 5.00800461 -7.0018512 4.44667328 -6.44363403 3.86833191 C-2.68615146 0.15529806 -2.68615146 0.15529806 0 0 Z " fill="#000000" transform="translate(451.07763671875,368.8798828125)"/>
<path d="M0 0 C4.15125625 1.64496739 6.99807357 4.65728755 10.11328125 7.7421875 C10.97399483 8.58935837 10.97399483 8.58935837 11.85209656 9.4536438 C13.05913623 10.64621023 14.26341323 11.84157854 15.46508789 13.03955078 C17.31144566 14.87395249 19.1756365 16.6888764 21.04101562 18.50390625 C22.21208154 19.66551445 23.38204281 20.82823757 24.55078125 21.9921875 C25.11211258 22.53398651 25.67344391 23.07578552 26.25178528 23.63400269 C29.96481912 27.39148526 29.96481912 27.39148526 30.12011719 30.07763672 C28.58139446 32.71841762 26.71029022 34.6238662 24.52734375 36.765625 C23.62822266 37.65507812 22.72910156 38.54453125 21.80273438 39.4609375 C20.85720703 40.38132812 19.91167969 41.30171875 18.9375 42.25 C17.97783027 43.19461673 17.01883771 44.13992195 16.06054688 45.0859375 C13.71361172 47.39749172 11.35996609 49.7017634 9 52 C4.73963275 49.69756169 1.42463231 46.76076945 -1.9921875 43.37890625 C-2.54238556 42.83773666 -3.09258362 42.29656708 -3.65945435 41.73899841 C-4.81342272 40.59947133 -5.96465707 39.4571696 -7.11328125 38.31225586 C-8.8783675 36.55915537 -10.66126897 34.8255753 -12.4453125 33.09179688 C-13.56624668 31.98031771 -14.68607842 30.8677254 -15.8046875 29.75390625 C-16.341008 29.23711807 -16.87732849 28.7203299 -17.42990112 28.18788147 C-20.9694647 24.60391239 -20.9694647 24.60391239 -21.10424805 21.93823242 C-19.58651545 19.27423086 -17.7169324 17.38265066 -15.52734375 15.234375 C-14.62822266 14.34492188 -13.72910156 13.45546875 -12.80273438 12.5390625 C-11.85720703 11.61867188 -10.91167969 10.69828125 -9.9375 9.75 C-8.97783027 8.80538327 -8.01883771 7.86007805 -7.06054688 6.9140625 C-4.71361172 4.60250828 -2.35996609 2.2982366 0 0 Z " fill="#000000" transform="translate(119,402)"/>
<path d="M0 0 C2.66400156 1.51773259 4.55558177 3.38731565 6.70385742 5.5769043 C7.59331055 6.47602539 8.48276367 7.37514648 9.39916992 8.30151367 C10.31956055 9.24704102 11.23995117 10.19256836 12.18823242 11.16674805 C13.13284915 12.12641778 14.07815437 13.08541033 15.02416992 14.04370117 C17.33572415 16.39063633 19.63999582 18.74428195 21.93823242 21.10424805 C20.29326503 25.2555043 17.28094487 28.10232162 14.19604492 31.2175293 C13.34887405 32.07824287 13.34887405 32.07824287 12.48458862 32.9563446 C11.29202219 34.16338428 10.09665388 35.36766128 8.89868164 36.56933594 C7.06427993 38.41569371 5.24935602 40.27988455 3.43432617 42.14526367 C2.27271798 43.31632959 1.10999485 44.48629086 -0.05395508 45.6550293 C-0.59575409 46.21636063 -1.1375531 46.77769196 -1.69577026 47.35603333 C-5.45325284 51.06906717 -5.45325284 51.06906717 -8.1394043 51.22436523 C-10.78018519 49.68564251 -12.68563378 47.81453827 -14.82739258 45.6315918 C-15.7168457 44.7324707 -16.60629883 43.83334961 -17.52270508 42.90698242 C-18.90329102 41.48869141 -18.90329102 41.48869141 -20.31176758 40.04174805 C-21.2563843 39.08207831 -22.20168953 38.12308576 -23.14770508 37.16479492 C-25.4592593 34.81785977 -27.76353098 32.46421414 -30.06176758 30.10424805 C-27.75932927 25.8438808 -24.82253703 22.52888035 -21.44067383 19.11206055 C-20.89950424 18.56186249 -20.35833466 18.01166443 -19.80076599 17.4447937 C-18.6612389 16.29082533 -17.51893718 15.13959098 -16.37402344 13.9909668 C-14.62092295 12.22588055 -12.88734288 10.44297908 -11.15356445 8.65893555 C-10.04208529 7.53800137 -8.92949297 6.41816962 -7.81567383 5.29956055 C-7.29888565 4.76324005 -6.78209747 4.22691956 -6.24964905 3.67434692 C-2.66567997 0.13478334 -2.66567997 0.13478334 0 0 Z " fill="#000000" transform="translate(479.061767578125,396.895751953125)"/>
</svg>
